<svg width="200" height="200" version="1.1" viewBox="0 0 200 200" xml:space="preserve" xmlns="http://www.w3.org/2000/svg"><title>SO_0047</title>
<style type="text/css">
	.st0{fill:#179E6A;}
</style>
<symbol viewBox="-4.4 -3.5 8.6 7.1">
	
		<circle class="st0" cx="2.8" cy="-3.3" r=".3"/>
		<circle class="st0" cx="3.9" cy="-3.3" r=".3"/>
		<path class="st0" d="m1.9-3h-1.4l-1.2 3.5-1 3h-0.5l-2.3-7.1h6.3v0.6zm-5.5 0 1.6 5 1.6-5z"/>
	
</symbol>
<g fill="#179e6a" stroke-width="17.241"><path class="st0" d="m156.03 156.03a5.1724 5.1724 0 0 0-5.1724-5.1724 5.1724 5.1724 0 0 0-5.1724 5.1724 5.1724 5.1724 0 0 0 5.1724 5.1724 5.1724 5.1724 0 0 0 5.1724-5.1724z"/><path class="st0" d="m175 156.03a5.1724 5.1724 0 0 0-5.1724-5.1724 5.1724 5.1724 0 0 0-5.1724 5.1724 5.1724 5.1724 0 0 0 5.1724 5.1724 5.1724 5.1724 0 0 0 5.1724-5.1724z"/><path class="st0" d="m135.34 150.86h-24.138l-20.69-60.345-17.241-51.724h-8.6207l-39.655 122.41h108.62v-10.345zm-94.828 0 27.586-86.207 27.586 86.207z"/></g>
</svg>
