<?xml version="1.0" encoding="UTF-8" standalone="no"?>
<svg
   xmlns:dc="http://purl.org/dc/elements/1.1/"
   xmlns:cc="http://creativecommons.org/ns#"
   xmlns:rdf="http://www.w3.org/1999/02/22-rdf-syntax-ns#"
   xmlns:svg="http://www.w3.org/2000/svg"
   xmlns="http://www.w3.org/2000/svg"
   version="1.1"
   width="600"
   height="600"
   id="NATO Map Symbol">
  <g
     id="ICON"
	 transform="translate(0 50)">
  <path
     d="M 300.00069,362.88973 299.46377,217.2595 M 147.61257,362.88973 V 217.2595 h 151.31496 151.31496 l 2.14632,145.63023"
     style="fill:none;fill-rule:evenodd;stroke:#000000;stroke-width:25.5;stroke-linecap:butt;stroke-linejoin:miter;stroke-miterlimit:4;stroke-dasharray:none;stroke-opacity:1"
     id="ENGR" />
  <g
     id="Dive">
    <path
       d="m 369.8532,98.775577 c 1.32611,38.871343 -36.23453,73.959873 -74.94303,69.829143 -36.84642,-1.92793 -68.52873,-37.65976 -64.76527,-74.619729 1.8028,-35.997408 35.71346,-67.640413 72.00836,-65.211438 36.25599,0.617834 69.25694,33.230753 67.69994,70.002024 z"
       id="Helmet"
       style="color:#000000;display:inline;overflow:visible;visibility:visible;fill:none;stroke:#000000;stroke-width:8;stroke-linecap:round;stroke-linejoin:miter;stroke-miterlimit:4;stroke-dasharray:none;stroke-dashoffset:0;stroke-opacity:1;marker:none;enable-background:accumulate" />
    <path
       d="m 348.59099,98.775577 a 48.59098,48.59098 0 1 1 -97.18196,0 48.59098,48.59098 0 1 1 97.18196,0 z"
       id="Face"
       style="color:#000000;display:inline;overflow:visible;visibility:visible;fill:none;stroke:#000000;stroke-width:8;stroke-linecap:round;stroke-linejoin:miter;stroke-miterlimit:4;stroke-dasharray:none;stroke-dashoffset:0;stroke-opacity:1;marker:none;enable-background:accumulate" />
    <path
       d="m 364.36379,125.9656 h 23.85813 V 71.58556 h -23.85813"
       id="HelmetR"
       style="fill:none;stroke:#000000;stroke-width:8;stroke-linecap:butt;stroke-linejoin:miter;stroke-miterlimit:4;stroke-dasharray:none;stroke-opacity:1" />
    <path
       d="M 235.63622,125.9656 H 211.77809 V 71.585561 h 23.85813"
       id="HelmetL"
       style="fill:none;stroke:#000000;stroke-width:8;stroke-linecap:butt;stroke-linejoin:miter;stroke-miterlimit:4;stroke-dasharray:none;stroke-opacity:1" />
    <path
       d="m 272.80998,163.13936 -15.37762,28.25174 h 85.13527 l -15.37762,-28.25174"
       id="Neck"
       style="fill:none;stroke:#000000;stroke-width:8;stroke-linecap:butt;stroke-linejoin:miter;stroke-miterlimit:4;stroke-dasharray:none;stroke-opacity:1" />
  </g>
  </g>
  <path
     id="Hostile Frame"
     style="fill:none;stroke:#ff0000;stroke-width:10;stroke-linecap:round;stroke-linejoin:miter;stroke-miterlimit:1.5;stroke-dasharray:none;stroke-opacity:1"
     d="M 7,300 300,7 593,300 300,593 Z" />
</svg>
