<?xml version="1.0" encoding="UTF-8" standalone="no"?>
<svg xmlns="http://www.w3.org/2000/svg" 
   id="NATO Map Symbol"
   height="420"
   width="600">
  <g
     id="ICON"
	 transform="translate(0 10)">
  <path
     id="Wave" 
     d="m 92.5,317.73162 c 34.29533,0 32.33491,61.6614 66.62162,62.2993 v 0 c 34.29533,0 36.14385,-62.2993 70.43919,-62.2993 34.29532,0 36.14385,62.2993 70.43918,62.2993 34.29532,0 36.14386,-62.2993 70.43918,-62.2993 34.29533,0 36.14386,62.2993 70.43917,62.2993 34.29534,0 32.32633,-62.2993 66.62166,-62.2993"
     style="fill:none;stroke:#000000;stroke-width:10;stroke-linecap:butt;stroke-linejoin:miter;stroke-miterlimit:4;stroke-dasharray:none;stroke-opacity:1"/>
  <path
     id="ARMOUR"
     d="m 215.40054,292.5 c -51.4861,0 -93.22383,-41.01389 -93.22383,-92.5 0,-51.4861 41.73773,-92.5 93.22383,-92.5 h 169.19892 c 51.4861,0 93.22383,41.0139 93.22383,92.5 0,51.48611 -41.73773,92.5 -93.22383,92.5 z"
     style="color:#000000;display:inline;overflow:visible;visibility:visible;fill:none;stroke:#000000;stroke-width:10;stroke-linecap:round;stroke-linejoin:miter;stroke-miterlimit:4;stroke-dasharray:none;stroke-dashoffset:0;stroke-opacity:1;marker:none;enable-background:accumulate" />
  </g>
  <path
     id="Neutral Frame"
     style="opacity:1;fill:none;fill-opacity:1;stroke:#00af00;stroke-width:10;stroke-linecap:butt;stroke-linejoin:miter;stroke-miterlimit:4;stroke-dasharray:none;stroke-dashoffset:0;stroke-opacity:1"
     d="M 95,5 H 505 V 415 H 95 Z" />
</svg>
