<?xml version="1.0" encoding="UTF-8" standalone="no"?>
<svg
   xmlns:dc="http://purl.org/dc/elements/1.1/"
   xmlns:cc="http://creativecommons.org/ns#"
   xmlns:rdf="http://www.w3.org/1999/02/22-rdf-syntax-ns#"
   xmlns:svg="http://www.w3.org/2000/svg"
   xmlns="http://www.w3.org/2000/svg"
   version="1.1"
   width="600"
   height="600"
   id="NATO Map Symbol">
  <path
     id="GunSys"
     d="M 95,213 V 387"
     style="fill:none;stroke:#000000;stroke-width:10;stroke-linecap:butt;stroke-linejoin:miter;stroke-miterlimit:4;stroke-dasharray:none;stroke-opacity:1" />
  <path
     id="AirDef"
     style="fill:none;stroke:#000000;stroke-width:10;stroke-linecap:butt;stroke-linejoin:miter;stroke-miterlimit:4;stroke-dasharray:none;stroke-opacity:1"
     d="M 449.28904,440.31967 C 414.61029,416.47063 359.77706,401.16797 300,401.16797 c -59.77706,0 -114.61029,15.30266 -149.28904,39.1517" />
  <g
     id="ICON"
	 transform="translate(0 100)">
  <path
     id="ARMOUR"
     style="color:#000000;display:inline;overflow:visible;visibility:visible;fill:none;stroke:#000000;stroke-width:10;stroke-linecap:round;stroke-linejoin:miter;stroke-miterlimit:4;stroke-dasharray:none;stroke-dashoffset:0;stroke-opacity:1;marker:none;enable-background:accumulate"
     d="m 215.40054,246.93135 c -51.4861,0 -93.22383,-41.73772 -93.22383,-93.22383 0,-51.4861 41.73773,-93.223829 93.22383,-93.223829 h 169.19892 c 51.4861,0 93.22383,41.737729 93.22383,93.223829 0,51.48611 -41.73773,93.22383 -93.22383,93.22383 z" />
  <path
     d="M 261.08026,302.13184 V 153.46842 c 0,-23.2091 25.32375,-56.147794 38.91974,-56.147794 13.59598,0 38.91974,32.938694 38.91974,56.147794 v 146.55243"
     id="path2986"
     style="fill:none;stroke:#000000;stroke-width:10;stroke-linecap:butt;stroke-linejoin:miter;stroke-miterlimit:4;stroke-dasharray:none;stroke-opacity:1" />
  </g>
  <path
     id="Hostile Frame"
     style="fill:none;stroke:#ff0000;stroke-width:10;stroke-linecap:round;stroke-linejoin:miter;stroke-miterlimit:1.5;stroke-dasharray:none;stroke-opacity:1"
     d="M 7,300 300,7 593,300 300,593 Z" />
</svg>
