<?xml version="1.0" encoding="iso-8859-1"?>
<!DOCTYPE svg PUBLIC "-//W3C//DTD SVG 20000303 Stylable//EN"
"http://www.w3.org/TR/2000/03/WD-SVG-20000303/DTD/svg-20000303-stylable.dtd">

<svg width="5.5780in" height="5.5780in" viewBox="0 0 999 999">

<path style="fill:#abd7a2" d="M3,995 l0,-992 992,0 0,992 -992,0z" />
<path style="fill:#131516" d="M3,0 l-3,3 0,992 6,0 0,-992 -3,-3 3,3 0,-1 0,0 0,0 0,-1 0,0 -1,0 0,0 0,-1 -1,0 0,0 -1,0 0,0 -1,0 0,0 -1,0 -1,0 0,1 0,0 0,0 0,0 0,1 0,0 0,0 0,1z" />
<path style="fill:#131516" d="M999,3 l-4,-3 -992,0 0,6 992,0 4,-3 -4,3 1,0 0,0 0,0 1,0 0,0 0,-1 0,0 1,0 0,-1 0,0 0,-1 1,0 -1,-1 0,0 0,-1 0,-1 -1,0 0,0 0,0 0,0 -1,0 0,0 0,0 -1,0z" />
<path style="fill:#131516" d="M995,999 l4,-4 0,-992 -7,0 0,992 3,4 -3,-4 0,1 0,0 0,0 0,1 0,0 1,0 0,1 0,0 1,0 0,0 1,0 0,1 1,-1 0,0 1,0 1,0 0,0 0,-1 0,0 0,0 0,-1 0,0 1,0 0,-1z" />
<path style="fill:#131516" d="M0,995 l3,4 992,0 0,-7 -992,0 -3,3 3,-3 -1,0 0,0 0,0 -1,0 0,0 0,1 -1,0 0,0 0,1 0,0 0,1 0,0 0,1 0,0 0,1 0,1 0,0 1,0 0,0 0,0 1,0 0,0 0,1 1,0z" />
<path style="fill:#131516" d="M312,707 l0,7 6,0 0,-7 -6,0 0,0 0,0 -1,0 0,0 0,0 -1,1 0,0 0,0 0,0 -1,0 0,1 0,0 0,1 0,1 0,0 0,1 0,0 0,1 1,0 0,0 0,0 0,1 1,0 0,0 0,0 1,0z" />
<path style="fill:#131516" d="M305,707 l0,7 7,0 0,-7 -7,0 0,0 0,0 0,0 0,0 -1,0 0,1 0,0 -1,0 0,0 0,0 0,1 -1,0 0,1 0,1 0,0 0,1 1,0 0,1 0,0 0,0 1,0 0,1 0,0 1,0 0,0 0,0z" />
<path style="fill:#131516" d="M299,707 l0,7 6,0 0,-7 -6,0 0,0 0,0 -1,0 0,0 0,0 -1,1 0,0 0,0 0,0 -1,0 0,1 0,0 0,1 0,1 0,0 0,1 0,0 0,1 1,0 0,0 0,0 0,1 1,0 0,0 0,0 1,0z" />
<path style="fill:#131516" d="M292,714 l0,0 7,0 0,-7 -7,0 0,7 0,-7 0,0 0,0 -1,0 0,1 0,0 -1,0 0,0 0,0 -1,1 0,0 0,1 0,1 0,0 0,1 0,0 1,1 0,0 0,0 1,0 0,1 0,0 1,0 0,0 0,0z" />
<path style="fill:#131516" d="M286,706 l-1,6 7,2 1,-7 -6,-1 -1,0 1,0 -1,0 0,0 -1,0 0,0 0,0 -1,0 0,0 0,0 -1,1 0,0 0,1 0,0 0,1 0,0 0,1 0,1 0,0 0,0 0,0 1,1 0,0 0,0 1,0 0,0z" />
<path style="fill:#131516" d="M278,712 l1,0 7,0 0,-6 -7,0 -1,6 1,-6 0,0 -1,0 0,0 0,0 0,0 -1,0 0,1 0,0 -1,0 0,1 0,0 0,1 0,1 0,0 0,1 1,0 0,0 0,1 1,0 0,0 0,0 0,0 1,0 0,0z" />
<path style="fill:#131516" d="M273,704 l-1,6 6,2 2,-6 -6,-2 -1,0 1,0 -1,0 0,0 -1,0 0,0 0,0 -1,0 0,0 0,1 -1,0 0,0 0,1 0,1 -1,0 0,1 1,0 0,1 0,0 0,0 0,1 1,0 0,0 0,0 1,0 0,0z" />
<path style="fill:#131516" d="M267,710 l1,1 5,0 0,-7 -5,0 -1,6 1,-6 -1,0 0,0 0,0 -1,0 0,1 0,0 0,0 -1,0 0,1 0,0 0,1 0,0 0,1 0,1 0,0 0,1 1,0 0,0 0,0 0,0 1,0 0,1 0,0 1,0z" />
<path style="fill:#131516" d="M262,703 l-1,6 6,1 2,-6 -7,-1 0,0 0,0 0,-1 -1,0 0,0 0,0 -1,1 0,0 0,0 0,0 -1,0 0,1 -1,0 0,1 0,1 0,0 0,1 0,0 1,1 0,0 0,0 0,0 1,0 0,1 0,0 1,0z" />
<path style="fill:#131516" d="M256,701 l-2,6 7,2 1,-6 -6,-2 0,0 0,0 -1,0 0,0 -1,0 0,0 0,0 0,0 -1,0 0,0 0,1 -1,0 0,1 0,0 0,1 0,0 0,1 0,1 0,0 0,0 0,0 1,1 0,0 0,0 1,0 0,0z" />
<path style="fill:#131516" d="M248,699 l0,7 6,1 2,-6 -7,-2 -1,0 1,0 0,0 -1,0 0,0 0,0 -1,0 0,0 0,1 0,0 -1,0 0,1 -1,0 0,1 0,0 0,1 0,0 0,1 1,0 0,1 0,0 0,0 1,0 0,0 0,0 1,1z" />
<path style="fill:#131516" d="M241,706 l1,0 6,0 0,-7 -6,0 -1,7 1,-7 -1,0 0,0 0,0 -1,0 0,1 0,0 0,0 -1,0 0,1 0,0 0,1 0,0 0,1 0,1 0,0 0,1 1,0 0,0 0,0 0,0 1,1 0,0 0,0 1,0z" />
<path style="fill:#131516" d="M236,704 l0,0 5,2 2,-7 -5,-1 -2,6 2,-6 0,0 -1,0 0,0 0,0 -1,0 0,0 0,0 -1,0 0,0 -1,1 0,0 0,1 0,0 0,1 0,1 0,0 0,0 0,1 0,0 1,0 0,0 0,1 1,0 0,0z" />
<path style="fill:#131516" d="M231,694 l-2,6 7,4 2,-6 -6,-3 -1,-1 1,1 0,-1 -1,0 0,0 0,0 -1,0 0,0 0,0 -1,0 0,1 -1,0 0,1 0,0 -1,1 0,0 0,1 0,0 0,1 0,0 1,0 0,1 0,0 0,0 1,0 0,0z" />
<path style="fill:#131516" d="M226,693 l-1,6 4,2 2,-7 -4,-1 -1,0 1,0 -1,0 0,0 -1,0 0,0 0,0 0,0 -1,0 0,0 -1,0 0,1 0,0 -1,1 0,1 0,0 0,1 1,0 0,1 0,0 0,0 0,0 1,1 0,0 0,0 1,0z" />
<path style="fill:#131516" d="M220,691 l-2,6 7,2 1,-6 -6,-2 0,0 0,0 -1,0 0,0 0,0 -1,0 0,0 0,0 -1,0 0,1 0,0 -1,0 0,1 0,1 0,0 0,1 0,0 0,1 0,0 0,0 1,1 0,0 0,0 1,0 0,0 0,0z" />
<path style="fill:#131516" d="M211,695 l1,1 6,1 2,-6 -7,-1 -2,5 2,-5 0,-1 0,0 -1,0 0,0 0,1 -1,0 0,0 0,0 -1,0 0,1 0,0 -1,1 0,0 0,1 0,1 1,0 0,1 0,0 0,0 0,0 1,0 0,1 0,0 1,0z" />
<path style="fill:#131516" d="M209,686 l-3,6 5,3 3,-5 -5,-3 0,-1 0,1 0,-1 0,0 -1,0 0,0 0,0 -1,0 0,0 0,0 -1,0 0,1 -1,0 0,1 0,0 -1,1 0,0 0,1 0,0 1,1 0,0 0,0 0,0 0,1 1,0 0,0z" />
<path style="fill:#131516" d="M204,685 l-2,6 5,1 2,-6 -5,-1 0,0 0,0 -1,0 0,0 0,0 -1,0 0,0 0,0 -1,0 0,0 0,0 -1,1 0,0 0,1 0,0 -1,1 1,1 0,0 0,0 0,1 0,0 0,0 1,0 0,1 0,0 1,0z" />
<path style="fill:#131516" d="M194,689 l1,0 7,2 2,-6 -7,-2 -3,6 3,-6 0,0 -1,0 0,0 0,0 -1,0 0,0 0,0 -1,0 0,1 0,0 -1,1 0,0 0,1 0,1 0,0 0,1 0,0 1,0 0,0 0,1 0,0 1,0 0,0 0,0z" />
<path style="fill:#131516" d="M190,686 l0,0 4,3 4,-5 -5,-4 -3,6 3,-6 0,0 -1,0 0,0 0,0 -1,0 0,0 0,0 0,0 -1,0 -1,0 0,1 0,0 -1,1 0,0 0,1 0,0 0,1 0,0 0,0 1,1 0,0 0,0 0,0 1,1z" />
<path style="fill:#131516" d="M187,677 l-2,5 5,4 3,-6 -5,-3 -1,0 1,0 0,0 0,0 -1,0 0,-1 0,0 -1,0 0,0 0,0 -1,1 0,0 -1,0 0,1 0,0 -1,1 0,1 0,0 0,1 0,0 1,0 0,0 0,1 0,0 0,0 1,0z" />
<path style="fill:#131516" d="M178,681 l1,0 7,2 1,-6 -6,-2 -3,6 3,-6 -1,0 0,0 0,0 -1,0 0,0 0,0 -1,0 0,0 0,1 -1,0 0,1 0,0 0,1 0,0 0,1 0,1 0,0 0,0 1,0 0,1 0,0 0,0 1,0 0,0z" />
<path style="fill:#131516" d="M173,678 l0,0 5,3 4,-6 -5,-3 -4,6 4,-6 0,0 -1,0 0,0 0,0 -1,0 0,0 0,0 -1,0 0,0 -1,0 0,1 -1,0 0,1 0,0 0,1 0,0 0,1 0,0 0,0 0,1 0,0 1,0 0,0 0,1z" />
<path style="fill:#131516" d="M172,669 l-4,5 5,4 4,-6 -5,-3 0,0 0,0 0,0 -1,-1 0,0 0,0 -1,0 0,0 0,0 -1,0 0,1 -1,0 0,0 0,1 -1,0 0,1 0,0 0,1 0,0 0,1 0,0 0,0 1,1 0,0 0,0 0,0z" />
<path style="fill:#131516" d="M167,666 l-3,5 4,3 4,-5 -5,-3 0,0 0,0 0,-1 -1,0 0,0 0,0 -1,0 0,0 0,0 0,0 -1,0 -1,1 0,0 0,0 -1,1 0,1 0,0 0,1 0,0 0,0 0,1 0,0 1,0 0,1 0,0 1,0z" />
<path style="fill:#131516" d="M162,662 l-3,6 5,3 3,-5 -5,-4 0,0 0,0 0,0 0,0 -1,0 0,0 0,0 -1,0 0,0 0,0 -1,0 0,0 -1,1 0,0 -1,1 0,0 0,1 0,1 0,0 0,0 0,0 1,1 0,0 0,0 0,1 1,0z" />
<path style="fill:#131516" d="M154,664 l0,0 5,4 3,-6 -5,-3 -3,5 3,-5 0,0 0,0 -1,0 0,0 0,-1 -1,0 0,1 0,0 -1,0 0,0 -1,1 0,0 0,1 -1,0 0,1 0,0 0,1 0,0 1,0 0,0 0,1 0,0 0,0 1,0z" />
<path style="fill:#131516" d="M152,656 l-3,5 5,3 3,-5 -5,-3 0,0 0,0 0,0 0,-1 -1,0 0,0 0,0 -1,0 0,0 0,0 -1,1 0,0 -1,0 0,1 0,0 -1,1 0,0 0,1 0,0 1,1 0,0 0,0 0,0 0,1 1,0 0,0z" />
<path style="fill:#131516" d="M143,658 l1,0 5,3 3,-5 -4,-3 -5,5 5,-5 -1,-1 0,0 0,0 -1,0 0,0 0,0 -1,0 0,0 -1,0 0,1 -1,0 0,0 0,1 0,1 -1,0 1,1 0,0 0,0 0,1 0,0 0,0 0,0 1,1 0,0z" />
<path style="fill:#131516" d="M144,649 l-4,5 3,4 5,-5 -3,-3 -1,-1 1,1 0,-1 -1,0 0,0 0,0 -1,0 0,0 0,0 -1,0 0,0 -1,0 0,0 -1,1 0,0 0,1 -1,0 0,1 0,0 0,0 0,1 0,0 1,0 0,1 0,0 0,0z" />
<path style="fill:#131516" d="M136,651 l0,0 5,4 3,-6 -5,-3 -3,5 3,-5 0,0 0,0 -1,0 0,-1 0,0 -1,0 0,0 0,1 -1,0 0,0 -1,0 0,1 0,0 -1,1 0,1 0,0 0,1 1,0 0,0 0,0 0,1 0,0 1,0 0,0z" />
<path style="fill:#131516" d="M130,647 l1,1 5,3 3,-5 -4,-3 -5,4 5,-4 -1,0 0,-1 0,0 -1,0 0,0 0,0 -1,0 0,0 -1,0 0,1 -1,0 0,1 0,0 0,1 -1,0 0,1 1,0 0,1 0,0 0,0 0,0 0,1 1,0 0,0z" />
<path style="fill:#131516" d="M131,638 l-4,4 3,5 5,-3 -3,-5 -1,-1 1,1 0,-1 0,0 -1,0 0,0 0,0 0,-1 -1,0 0,0 -1,0 0,0 -1,1 0,0 -1,0 0,1 -1,0 0,1 0,0 0,0 0,1 0,0 0,0 0,1 1,0 0,0z" />
<path style="fill:#131516" d="M122,639 l1,1 5,3 3,-5 -5,-3 -4,4 4,-4 0,-1 0,0 -1,0 0,0 0,0 -1,0 0,0 0,0 -1,0 0,1 -1,0 0,1 0,0 -1,1 0,0 0,1 0,0 1,0 0,1 0,0 0,0 0,1 1,0 0,0z" />
<path style="fill:#131516" d="M123,630 l-4,4 3,5 5,-3 -3,-5 -1,-1 1,1 0,-1 0,0 -1,0 0,0 0,-1 0,0 -1,0 0,0 -1,0 0,0 -1,0 0,1 -1,0 0,1 -1,0 0,1 0,0 0,0 0,1 0,0 0,0 0,1 0,0 1,0z" />
<path style="fill:#131516" d="M114,631 l1,1 5,3 3,-5 -5,-4 -4,5 4,-5 0,0 0,0 -1,0 0,0 0,0 -1,0 0,0 0,0 -1,0 0,0 -1,1 0,0 0,1 -1,0 0,1 0,1 0,0 0,0 1,1 0,0 0,0 0,0 0,1 1,0z" />
<path style="fill:#131516" d="M111,628 l0,0 3,3 5,-4 -3,-3 -5,4 5,-4 -1,-1 0,0 0,0 -1,0 0,0 0,0 -1,0 0,0 0,0 -1,0 -1,0 0,1 0,0 -1,1 0,0 0,1 0,0 0,0 0,1 0,0 0,0 0,1 1,0 0,0z" />
<path style="fill:#131516" d="M113,619 l-6,4 4,5 5,-4 -3,-5 0,0 0,0 -1,0 0,0 0,-1 0,0 -1,0 0,0 0,0 0,0 -1,0 -1,0 0,0 -1,0 0,1 -1,0 0,1 0,0 0,1 0,0 0,0 0,1 0,0 0,0 0,1 0,0z" />
<path style="fill:#131516" d="M109,614 l-5,4 3,5 6,-4 -4,-5 0,0 0,0 0,0 0,0 0,0 -1,-1 0,0 0,0 0,0 -1,0 0,0 -1,0 -1,0 0,1 -1,0 0,0 0,1 0,0 -1,1 0,0 0,0 0,1 1,0 0,0 0,1 0,0z" />
<path style="fill:#131516" d="M103,617 l0,0 1,2 5,-5 -2,-2 -4,5 4,-5 0,0 0,0 0,0 -1,-1 0,0 0,0 -1,0 0,0 -1,0 0,1 -1,0 0,0 -1,1 0,0 0,1 0,0 0,1 0,0 0,0 0,1 0,0 0,0 1,1 0,0z" />
<path style="fill:#131516" d="M101,614 l0,1 2,2 4,-5 -1,-1 -5,3 5,-3 -1,-1 0,0 0,0 0,0 -1,0 0,0 0,0 -1,0 0,0 -1,0 0,0 -1,1 0,0 -1,1 0,0 0,1 0,0 0,0 0,1 0,0 1,0 0,1 0,0 0,0z" />
<path style="fill:#131516" d="M104,607 l-5,4 2,3 5,-2 -1,-4 -1,-1 1,1 0,0 -1,0 0,-1 0,0 0,0 -1,0 0,0 0,0 -1,-1 0,0 -1,1 -1,0 0,0 -1,1 0,0 0,1 0,0 0,0 0,0 0,1 0,0 0,0 0,1 0,0z" />
<path style="fill:#131516" d="M98,610 l0,0 2,2 4,-5 -1,-1 -5,4 5,-4 -1,0 0,-1 0,0 -1,0 0,0 0,0 -1,0 0,0 -1,0 0,0 -1,0 0,1 0,0 -1,1 0,0 0,1 0,0 0,1 0,0 0,0 0,0 0,1 1,0 0,0z" />
<path style="fill:#131516" d="M96,608 l0,1 2,1 5,-4 -2,-2 -5,4 5,-4 0,0 -1,0 0,-1 0,0 -1,0 0,0 0,0 -1,0 0,0 -1,0 0,1 -1,0 0,1 0,0 -1,1 0,0 0,1 0,0 0,0 0,1 1,0 0,0 0,0 0,1z" />
<path style="fill:#131516" d="M99,601 l-5,4 2,3 6,-3 -2,-3 -1,-1 1,1 0,-1 -1,0 0,0 0,0 0,-1 -1,0 0,0 0,0 -1,0 0,0 -1,0 0,0 -1,1 0,0 -1,0 0,1 0,0 0,1 0,0 0,0 0,1 0,0 0,0 0,1z" />
<path style="fill:#131516" d="M92,603 l1,1 2,1 4,-4 -1,-2 -6,4 6,-4 -1,0 0,0 0,0 -1,-1 0,0 0,0 0,0 -1,0 0,0 -1,1 -1,0 0,0 0,1 -1,0 0,1 0,0 0,1 0,0 0,0 0,1 0,0 1,0 0,1 0,0z" />
<path style="fill:#131516" d="M96,596 l-5,4 1,3 6,-3 -1,-3 -1,-1 1,1 -1,0 0,-1 0,0 0,0 -1,0 0,-1 0,0 0,0 -1,0 -1,0 0,0 -1,0 0,1 -1,0 0,1 0,0 0,0 -1,1 0,0 0,0 0,1 1,0 0,0 0,1z" />
<path style="fill:#131516" d="M94,594 l-4,5 1,2 5,-5 -2,-2 0,0 0,0 0,0 0,0 -1,0 0,0 0,-1 0,0 -1,0 0,0 -1,0 0,1 -1,0 0,0 -1,1 0,0 0,1 0,1 0,0 0,0 0,0 0,1 0,0 0,0 1,1 0,0z" />
<path style="fill:#131516" d="M88,596 l0,1 2,2 4,-5 -1,-1 -5,3 5,-3 -1,-1 0,0 0,0 0,0 -1,0 0,0 0,0 -1,0 0,0 -1,0 0,0 -1,1 0,0 -1,1 0,0 0,1 0,0 0,1 0,0 0,0 0,0 1,1 0,0 0,0z" />
<path style="fill:#131516" d="M91,589 l-5,4 2,3 5,-2 -1,-4 -1,-1 1,1 0,0 -1,0 0,-1 0,0 0,0 -1,0 0,0 0,0 -1,0 0,0 -1,0 -1,0 0,0 -1,1 0,0 0,1 0,0 0,0 0,1 0,0 0,0 0,1 0,0 0,0z" />
<path style="fill:#131516" d="M84,590 l1,2 2,2 4,-5 -2,-1 -5,2 5,-2 0,0 0,-1 0,0 -1,0 0,0 0,0 -1,0 0,0 -1,0 0,0 -1,0 0,1 -1,0 0,1 0,0 0,1 0,0 0,1 0,0 0,0 0,1 0,0 1,0 0,0z" />
<path style="fill:#131516" d="M89,585 l-5,2 0,3 6,0 0,-3 -1,-2 1,2 0,-1 0,0 0,0 0,-1 0,0 0,0 0,0 -1,-1 0,0 -1,0 0,0 -1,0 0,0 -1,0 -1,0 0,0 0,1 0,0 -1,0 0,0 0,1 0,0 0,0 0,1z" />
<path style="fill:#131516" d="M83,587 l0,1 2,1 4,-4 -1,-2 -5,4 5,-4 0,0 -1,-1 0,0 0,0 -1,0 0,0 0,0 -1,0 0,0 -1,0 0,1 -1,0 0,0 0,1 -1,1 0,0 0,0 0,1 0,0 0,0 1,1 0,0 0,0 0,1z" />
<path style="fill:#131516" d="M79,580 l1,2 3,5 5,-4 -3,-4 -6,1 6,-1 0,-1 0,0 -1,0 0,0 0,-1 -1,0 0,0 0,0 -1,0 0,0 -1,0 -1,1 0,0 0,0 -1,1 0,1 0,0 0,0 0,1 0,0 0,0 0,1 0,0 1,0z" />
<path style="fill:#131516" d="M85,575 l-6,2 0,3 7,0 0,-3 -1,-2 1,2 0,0 -1,-1 0,0 0,0 0,-1 0,0 0,0 0,0 -1,-1 0,0 -1,0 -1,0 0,0 -1,0 0,0 -1,1 0,0 0,0 -1,0 0,1 0,0 0,0 0,1 0,0z" />
<path style="fill:#131516" d="M78,577 l0,1 2,1 5,-4 -2,-2 -5,4 5,-4 0,0 -1,0 0,0 0,-1 -1,0 0,0 0,0 0,0 -1,0 -1,0 0,1 -1,0 0,1 0,0 -1,1 0,0 0,1 0,0 0,0 1,1 0,0 0,0 0,0 0,1z" />
<path style="fill:#131516" d="M74,571 l1,1 3,5 5,-3 -3,-5 -6,2 6,-2 0,-1 0,0 -1,0 0,0 0,0 0,-1 -1,0 0,0 -1,0 0,0 -1,1 0,0 -1,0 0,1 -1,0 0,1 0,0 0,0 0,1 0,0 0,0 0,1 1,0 0,0z" />
<path style="fill:#131516" d="M80,565 l-6,2 0,4 7,0 0,-4 -1,-2 1,2 0,0 0,0 0,-1 -1,0 0,0 0,-1 0,0 0,0 -1,0 0,-1 -1,0 -1,0 0,0 -1,0 0,1 -1,0 0,0 0,0 0,1 -1,0 0,0 0,1 0,0 0,0z" />
<path style="fill:#131516" d="M73,567 l0,1 2,2 5,-5 -2,-2 -5,4 5,-4 0,0 -1,0 0,0 0,0 0,-1 -1,0 0,0 0,0 -1,0 -1,1 0,0 -1,0 0,1 0,0 0,1 -1,1 0,0 1,0 0,0 0,1 0,0 0,0 0,1 0,0z" />
<path style="fill:#131516" d="M77,560 l-6,2 2,5 6,-2 -2,-5 0,0 0,0 0,-1 0,0 0,0 0,0 -1,-1 0,0 0,0 0,0 -1,0 -1,0 0,0 -1,0 0,0 -1,0 0,1 -1,0 0,1 0,0 0,0 0,0 0,1 0,0 0,0 0,1z" />
<path style="fill:#131516" d="M75,555 l-6,2 2,5 6,-2 -1,-5 -1,0 1,0 -1,0 0,-1 0,0 0,0 0,-1 -1,0 0,0 0,0 -1,0 0,0 -1,0 0,0 -1,0 -1,0 0,1 0,0 0,1 -1,0 0,0 0,1 0,0 0,0 0,1 0,0z" />
<path style="fill:#131516" d="M68,553 l0,1 2,3 5,-2 -1,-4 -6,2 6,-2 0,0 -1,0 0,-1 0,0 0,0 -1,0 0,0 0,0 -1,-1 0,0 -1,1 -1,0 0,0 -1,1 0,0 0,1 0,0 0,0 0,0 0,1 0,0 0,0 0,1 0,0z" />
<path style="fill:#131516" d="M74,550 l-6,1 0,2 6,0 0,-2 0,-1 0,1 0,0 0,-1 0,0 0,0 0,-1 0,0 -1,0 0,0 0,-1 -1,0 0,0 -1,0 -1,0 0,0 -1,0 0,1 -1,0 0,0 0,0 0,1 0,0 0,0 0,1 0,0z" />
<path style="fill:#131516" d="M66,548 l0,1 2,4 6,-3 -2,-4 -6,2 6,-2 0,0 0,0 0,-1 -1,0 0,0 0,0 -1,0 0,0 0,0 -1,0 -1,0 0,0 -1,0 0,1 -1,0 0,1 0,0 0,0 0,1 0,0 0,0 0,1 0,0 0,0z" />
<path style="fill:#131516" d="M72,542 l-6,3 0,3 7,0 0,-3 -1,-3 1,3 0,-1 -1,0 0,-1 0,0 0,0 0,0 0,-1 0,0 -1,0 -1,0 0,-1 -1,0 0,0 -1,1 0,0 -1,0 0,0 0,1 -1,0 0,0 0,0 0,1 0,0 0,1z" />
<path style="fill:#131516" d="M64,543 l1,2 2,2 5,-5 -2,-1 -6,2 6,-2 0,-1 -1,0 0,0 0,0 -1,0 0,0 0,0 -1,0 0,0 -1,0 0,0 -1,1 0,0 0,1 -1,0 0,1 0,0 0,0 0,1 1,0 0,0 0,1 0,0 0,0z" />
<path style="fill:#131516" d="M71,540 l-7,0 0,3 7,0 0,-3 0,0 0,0 0,-1 0,0 0,0 0,-1 -1,0 0,0 0,-1 0,0 -1,0 0,0 -1,-1 0,0 -1,0 -1,1 0,0 -1,0 0,0 0,1 0,0 0,0 0,1 -1,0 0,0 0,1z" />
<path style="fill:#131516" d="M71,537 l-7,1 0,2 7,0 0,-2 0,-1 0,1 0,0 0,-1 0,0 0,0 -1,-1 0,0 0,0 0,0 -1,-1 0,0 -1,0 0,0 -1,0 -1,0 0,0 -1,1 0,0 0,0 0,0 0,1 0,0 -1,0 0,1 0,0z" />
<path style="fill:#131516" d="M63,535 l0,1 2,4 6,-3 -2,-4 -6,2 6,-2 0,0 0,0 -1,-1 0,0 0,0 0,0 -1,0 0,0 -1,0 0,0 -1,0 0,0 -1,0 0,1 -1,0 0,1 0,0 0,0 0,1 0,0 0,0 0,1 0,0 0,0z" />
<path style="fill:#131516" d="M69,532 l-6,0 0,3 6,0 0,-3 0,0 0,0 0,-1 0,0 0,-1 0,0 0,0 0,0 -1,-1 0,0 0,0 -1,0 0,-1 -1,0 -1,0 0,1 -1,0 0,0 0,0 -1,1 0,0 0,0 0,0 0,1 0,0 0,1z" />
<path style="fill:#131516" d="M69,528 l-6,2 0,2 6,0 0,-2 0,-2 0,2 0,0 0,-1 0,0 0,0 0,-1 0,0 -1,0 0,-1 0,0 -1,0 0,0 -1,0 -1,0 0,0 -1,0 0,0 0,1 -1,0 0,0 0,1 0,0 0,0 0,1 0,0z" />
<path style="fill:#131516" d="M61,527 l1,1 1,3 6,-3 -2,-3 -6,2 6,-2 0,0 0,0 0,-1 -1,0 0,0 0,0 0,0 -1,-1 0,0 -1,0 -1,1 0,0 -1,0 0,0 0,1 -1,0 0,1 0,0 0,0 0,1 0,0 0,0 0,1 1,0z" />
<path style="fill:#131516" d="M68,523 l-7,0 0,4 7,0 0,-4 0,0 0,0 0,0 0,0 -1,-1 0,0 0,0 0,-1 0,0 0,0 -1,0 0,-1 -1,0 -1,0 0,0 -1,0 0,1 -1,0 0,0 0,0 0,1 -1,0 0,0 0,1 0,0 0,0z" />
<path style="fill:#131516" d="M68,522 l-7,0 0,1 7,0 0,-1 0,0 0,0 0,-1 0,0 -1,0 0,-1 0,0 0,0 0,0 0,-1 -1,0 0,0 -1,0 -1,0 0,0 -1,0 0,0 -1,0 0,1 0,0 0,0 -1,0 0,1 0,0 0,0 0,1z" />
<path style="fill:#131516" d="M67,516 l-6,3 0,3 7,0 0,-3 -1,-3 1,3 0,-1 0,0 -1,-1 0,0 0,0 0,0 0,-1 0,0 -1,0 0,-1 -1,0 -1,0 0,0 -1,0 0,1 -1,0 0,0 0,1 0,0 -1,0 0,0 0,1 0,0 0,1z" />
<path style="fill:#131516" d="M60,517 l1,2 1,2 5,-5 -2,-1 -5,2 5,-2 0,-1 -1,0 0,0 0,0 0,0 -1,0 0,0 0,0 -1,0 0,0 -1,0 0,1 -1,0 0,1 0,0 0,1 0,0 0,0 0,1 0,0 0,0 0,1 0,0 1,0z" />
<path style="fill:#131516" d="M66,514 l-6,0 0,3 6,0 0,-3 0,0 0,0 0,-1 0,0 0,0 0,-1 0,0 -1,0 0,-1 0,0 -1,0 0,0 -1,-1 0,0 -1,0 0,1 -1,0 0,0 -1,0 0,1 0,0 0,0 0,1 0,0 0,0 0,1z" />
<path style="fill:#131516" d="M66,507 l-6,0 0,7 6,0 0,-7 0,0 0,0 0,0 0,-1 0,0 0,0 0,-1 -1,0 0,0 0,0 -1,-1 0,0 -1,0 0,0 -1,0 0,0 -1,0 0,1 -1,0 0,0 0,0 0,1 0,0 0,0 0,1 0,0z" />
<path style="fill:#131516" d="M66,505 l-6,0 0,2 6,0 0,-2 0,0 0,0 0,0 0,0 0,-1 0,0 0,0 -1,0 0,-1 0,0 -1,0 0,-1 -1,0 0,0 -1,0 0,0 -1,1 0,0 -1,0 0,1 0,0 0,0 0,0 0,1 0,0 0,0z" />
<path style="fill:#131516" d="M66,502 l-6,0 0,3 6,0 0,-3 0,0 0,0 0,0 0,-1 0,0 0,0 0,0 -1,-1 0,0 0,0 -1,-1 0,0 -1,0 0,0 -1,0 0,0 -1,0 0,1 -1,0 0,0 0,1 0,0 0,0 0,0 0,1 0,0z" />
<path style="fill:#131516" d="M66,497 l-6,0 0,5 6,0 0,-5 0,0 0,0 0,0 0,0 0,-1 0,0 0,0 -1,-1 0,0 0,0 -1,0 0,-1 -1,0 0,0 -1,0 0,0 -1,1 0,0 -1,0 0,0 0,1 0,0 0,0 0,1 0,0 0,0z" />
<path style="fill:#131516" d="M66,491 l-6,0 0,6 6,0 0,-6 0,0 0,0 0,-1 0,0 0,0 0,-1 0,0 -1,0 0,0 0,-1 -1,0 0,0 -1,0 0,0 -1,0 0,0 -1,0 0,0 -1,1 0,0 0,0 0,0 0,1 0,0 0,0 0,1z" />
<path style="fill:#131516" d="M66,486 l-6,0 0,5 6,0 0,-5 0,0 0,0 0,0 0,-1 0,0 0,0 0,-1 -1,0 0,0 0,0 -1,-1 0,0 -1,0 0,0 -1,0 0,0 -1,0 0,1 -1,0 0,0 0,0 0,1 0,0 0,0 0,1 0,0z" />
<path style="fill:#131516" d="M60,478 l0,1 0,7 6,0 0,-7 -6,-1 6,1 0,0 0,0 0,-1 0,0 0,0 -1,-1 0,0 0,0 -1,0 0,-1 -1,0 0,0 -1,0 0,0 -1,1 0,0 -1,0 0,0 0,1 0,0 0,0 0,1 0,0 0,0z" />
<path style="fill:#131516" d="M68,475 l-7,-1 -1,4 6,2 1,-4 1,-1 -1,1 1,-1 0,0 0,0 0,-1 0,0 0,0 -1,-1 0,0 0,-1 -1,0 0,0 -1,0 0,-1 -1,0 0,0 -1,1 0,0 -1,0 0,0 0,0 0,1 0,0 0,0 -1,1z" />
<path style="fill:#131516" d="M61,469 l0,1 0,5 7,0 0,-5 -7,-1 7,1 0,-1 0,0 -1,0 0,-1 0,0 0,0 0,-1 0,0 -1,0 0,0 -1,-1 -1,0 0,0 -1,1 0,0 -1,0 0,0 0,1 0,0 -1,0 0,1 0,0 0,0 0,1z" />
<path style="fill:#131516" d="M69,463 l-6,-1 -2,7 7,1 1,-6 0,-1 0,1 0,0 0,-1 0,0 0,0 0,-1 0,0 0,0 0,-1 -1,0 0,0 -1,-1 0,0 -1,0 0,0 -1,0 -1,0 0,0 0,1 0,0 -1,0 0,0 0,1 0,0 0,0z" />
<path style="fill:#131516" d="M63,457 l0,1 0,5 6,0 0,-5 -6,-1 6,1 0,0 0,0 0,-1 0,0 0,0 0,-1 -1,0 0,0 0,0 -1,-1 0,0 -1,0 -1,0 0,0 -1,1 0,0 0,0 -1,0 0,1 0,0 0,0 0,1 0,0 0,0z" />
<path style="fill:#131516" d="M71,454 l-6,-2 -2,5 6,2 2,-5 0,0 0,0 0,0 0,0 0,-1 0,0 0,0 0,-1 0,0 0,0 -1,-1 0,0 -1,0 0,-1 -1,0 -1,0 0,0 -1,0 0,1 0,0 0,0 -1,0 0,0 0,1 0,0 0,0z" />
<path style="fill:#131516" d="M72,450 l-6,-2 -1,4 6,2 1,-4 0,0 0,0 0,-1 1,0 0,-1 0,0 -1,0 0,-1 0,0 0,0 0,-1 -1,0 0,0 -1,-1 0,0 -1,0 -1,0 0,1 0,0 -1,0 0,0 0,0 0,1 -1,0 0,0 0,1z" />
<path style="fill:#131516" d="M74,444 l-6,-1 -2,5 6,2 2,-5 0,-1 0,1 0,-1 0,0 0,0 0,-1 0,0 0,0 0,-1 0,0 -1,0 0,-1 -1,0 0,0 -1,-1 0,0 -1,0 0,1 -1,0 0,0 0,0 0,0 -1,1 0,0 0,0 0,1z" />
<path style="fill:#131516" d="M69,436 l0,0 -1,7 6,1 2,-6 -7,-2 7,2 0,0 0,-1 0,0 0,0 0,-1 0,0 -1,0 0,-1 0,0 -1,0 0,-1 -1,0 0,0 -1,0 0,0 -1,0 0,0 -1,1 0,0 0,0 0,0 0,1 -1,0 0,0z" />
<path style="fill:#131516" d="M77,433 l-6,-2 -2,5 7,2 1,-5 0,0 0,0 0,0 0,0 0,-1 0,0 0,0 0,-1 0,0 0,0 0,-1 -1,0 0,-1 -1,0 0,0 -1,0 -1,0 0,0 0,0 -1,1 0,0 0,0 0,0 -1,1 0,0 0,0z" />
<path style="fill:#131516" d="M79,428 l-6,-2 -2,5 6,2 2,-5 0,0 0,0 0,0 0,0 0,-1 0,0 0,0 0,-1 0,0 0,0 -1,-1 0,0 -1,0 0,-1 -1,0 0,0 -1,0 -1,0 0,1 0,0 0,0 -1,0 0,0 0,1 0,0 0,0z" />
<path style="fill:#131516" d="M75,421 l-1,0 -1,5 6,2 1,-4 -5,-3 5,3 1,-1 0,0 0,-1 0,0 0,0 0,-1 -1,0 0,0 0,-1 0,0 -1,0 -1,-1 0,0 -1,0 0,0 -1,1 0,0 0,0 -1,0 0,0 0,1 0,0 -1,0 0,0z" />
<path style="fill:#131516" d="M84,419 l-6,-3 -3,5 5,3 3,-5 1,0 -1,0 1,0 0,0 0,-1 0,0 0,0 0,-1 0,0 0,0 0,-1 -1,0 0,-1 -1,0 0,0 -1,-1 0,0 -1,0 0,0 0,1 -1,0 0,0 0,0 -1,0 0,1 0,0z" />
<path style="fill:#131516" d="M80,411 l-1,1 -1,5 6,2 1,-5 -5,-3 5,3 0,-1 1,0 0,0 0,-1 0,0 -1,0 0,-1 0,0 0,0 -1,-1 0,0 -1,0 0,0 -1,-1 0,1 -1,0 0,0 -1,0 0,0 0,0 0,1 0,0 -1,0 0,1z" />
<path style="fill:#131516" d="M89,409 l-6,-3 -3,5 5,4 3,-5 1,-1 -1,1 0,-1 1,0 0,0 0,-1 0,0 0,0 0,-1 0,0 0,-1 -1,0 0,0 -1,-1 0,0 -1,0 0,0 -1,0 0,0 -1,0 0,0 0,0 0,0 -1,0 0,1 0,0z" />
<path style="fill:#131516" d="M84,401 l0,1 -2,5 7,2 1,-5 -6,-3 6,3 0,0 0,-1 0,0 0,0 0,-1 0,0 0,0 0,-1 0,0 -1,-1 0,0 -1,0 0,0 -1,0 -1,0 0,0 0,0 -1,0 0,0 0,1 0,0 -1,0 0,1 0,0z" />
<path style="fill:#131516" d="M88,396 l0,0 -4,5 6,4 3,-5 -5,-4 5,4 0,0 1,-1 0,0 0,0 0,-1 0,0 0,0 0,-1 -1,0 0,-1 0,0 -1,-1 0,0 -1,0 0,0 -1,0 0,0 -1,0 0,0 0,0 -1,0 0,1 0,0 0,0z" />
<path style="fill:#131516" d="M96,397 l-5,-4 -3,3 5,4 3,-3 0,0 0,0 0,0 1,0 0,-1 0,0 0,0 0,-1 0,0 0,0 0,-1 0,0 -1,-1 0,0 0,-1 -1,0 -1,0 0,0 0,0 -1,0 0,0 0,0 -1,0 0,0 0,0 -1,1z" />
<path style="fill:#131516" d="M100,391 l-6,-3 -3,5 5,4 4,-5 0,-1 0,1 0,-1 0,0 0,0 0,-1 0,0 0,0 0,-1 0,0 0,0 0,-1 -1,0 0,-1 -1,0 0,0 -1,0 -1,0 0,0 0,0 0,0 -1,0 0,0 0,1 -1,0 0,0z" />
<path style="fill:#131516" d="M96,384 l0,1 -2,3 6,3 2,-3 -6,-4 6,4 0,0 0,-1 0,0 0,0 0,-1 0,0 0,0 0,-1 -1,0 0,-1 0,0 -1,0 -1,0 0,-1 -1,0 0,0 -1,1 0,0 0,0 0,0 -1,0 0,1 0,0 0,0z" />
<path style="fill:#131516" d="M103,387 l-5,-4 -2,1 5,5 2,-2 0,0 0,0 0,0 0,0 0,-1 0,0 0,0 1,0 0,-1 0,0 -1,-1 0,0 0,-1 0,0 -1,-1 0,0 -1,0 -1,0 0,0 0,0 -1,0 0,0 0,0 0,0 -1,0 0,1z" />
<path style="fill:#131516" d="M101,378 l0,0 -3,5 5,4 3,-5 -5,-4 5,4 0,0 1,-1 0,0 0,0 0,-1 0,0 0,0 0,-1 -1,0 0,-1 0,0 -1,-1 0,0 -1,0 0,0 -1,0 0,0 -1,0 0,0 0,0 0,1 -1,0 0,0 0,0z" />
<path style="fill:#131516" d="M109,379 l-5,-4 -3,3 5,4 3,-3 0,0 0,0 0,0 1,0 0,-1 0,0 0,0 0,-1 0,0 0,0 0,-1 0,0 -1,-1 0,0 0,-1 -1,0 -1,0 0,0 0,0 -1,0 0,0 0,0 -1,0 0,0 0,0 -1,1z" />
<path style="fill:#131516" d="M108,370 l-1,0 -3,5 5,4 4,-5 -5,-4 5,4 0,0 0,-1 0,0 0,0 0,-1 0,0 0,0 0,-1 0,0 0,-1 -1,0 0,-1 -1,0 0,0 -1,0 -1,0 0,0 0,0 0,0 -1,0 0,0 0,1 0,0 -1,0z" />
<path style="fill:#131516" d="M116,371 l-5,-4 -3,3 4,4 4,-3 0,0 0,0 0,0 0,0 0,-1 0,0 0,0 1,-1 0,0 0,0 -1,-1 0,-1 0,0 0,0 -1,-1 0,0 -1,0 -1,0 0,0 0,0 -1,0 0,0 0,0 0,0 -1,0 0,1z" />
<path style="fill:#131516" d="M115,361 l-1,1 -3,5 5,4 3,-5 -4,-5 4,5 0,-1 1,0 0,0 0,-1 0,0 0,0 0,-1 0,0 0,0 -1,-1 0,0 -1,-1 0,0 -1,0 0,0 -1,0 0,0 -1,0 0,0 0,0 0,0 -1,1 0,0 0,0z" />
<path style="fill:#131516" d="M124,362 l-4,-4 -5,3 3,6 5,-4 1,-1 -1,1 1,0 0,0 0,0 0,-1 0,0 0,0 1,-1 0,0 0,0 0,-1 -1,-1 0,0 0,-1 -1,0 0,0 -1,-1 0,0 0,0 -1,0 0,0 0,0 -1,1 0,0 0,0z" />
<path style="fill:#131516" d="M123,353 l-1,1 -3,5 5,3 3,-4 -4,-5 4,5 1,-1 0,0 0,0 0,-1 0,0 0,0 0,-1 0,0 0,-1 -1,0 0,-1 -1,0 0,0 -1,0 0,-1 -1,1 0,0 0,0 -1,0 0,0 0,0 -1,0 0,1 0,0z" />
<path style="fill:#131516" d="M132,355 l-4,-5 -5,3 3,5 5,-3 1,0 -1,0 1,0 0,0 0,-1 0,0 0,0 1,0 0,-1 0,0 0,-1 0,0 -1,-1 0,0 0,-1 -1,0 0,0 -1,-1 0,0 0,0 -1,0 0,0 0,0 -1,0 0,1 0,0z" />
<path style="fill:#131516" d="M135,352 l-5,-5 -3,3 5,5 3,-3 0,0 0,0 0,-1 1,0 0,0 0,-1 0,0 0,0 0,-1 0,0 0,0 0,-1 -1,-1 0,0 0,0 -1,-1 -1,0 0,0 0,0 -1,0 0,0 0,0 -1,0 0,0 0,1 -1,0z" />
<path style="fill:#131516" d="M136,342 l-1,0 -5,5 5,5 5,-5 -4,-5 4,5 0,-1 0,0 1,0 0,-1 0,0 0,0 0,0 0,-1 0,0 0,-1 -1,0 0,-1 -1,0 0,-1 -1,0 0,0 -1,0 0,0 0,0 0,0 -1,0 0,1 0,0 -1,0z" />
<path style="fill:#131516" d="M145,343 l-4,-5 -5,4 3,5 5,-3 1,-1 -1,1 1,0 0,-1 0,0 0,0 1,0 0,-1 0,0 0,0 0,-1 0,-1 0,0 -1,-1 0,0 -1,-1 0,0 -1,0 0,0 0,0 -1,0 0,0 0,0 -1,0 0,0 0,0z" />
<path style="fill:#131516" d="M144,335 l-1,1 -3,3 5,4 3,-3 -4,-5 4,5 0,0 1,0 0,-1 0,0 0,0 0,-1 0,0 0,0 0,-1 0,0 -1,-1 0,0 0,-1 -1,0 0,0 -1,0 0,0 -1,0 0,0 0,0 -1,0 0,0 0,0 -1,1z" />
<path style="fill:#131516" d="M152,337 l-3,-5 -5,3 4,6 4,-4 0,0 0,0 1,0 0,0 0,0 1,-1 0,0 0,0 0,-1 0,0 0,-1 0,0 0,-1 -1,0 0,-1 0,0 -1,0 -1,-1 0,0 0,0 0,0 -1,0 0,0 0,1 -1,0 0,0z" />
<path style="fill:#131516" d="M154,329 l0,0 -5,3 3,5 5,-3 -3,-5 3,5 1,0 0,0 0,-1 0,0 1,0 0,-1 0,0 0,0 0,-1 0,0 0,-1 -1,0 0,-1 -1,0 0,-1 -1,0 0,0 0,0 -1,0 0,0 0,0 -1,0 0,0 0,1z" />
<path style="fill:#131516" d="M159,325 l0,0 -5,4 3,5 5,-3 -3,-6 3,6 1,0 0,-1 0,0 0,0 0,-1 1,0 0,0 0,0 0,-1 0,-1 -1,0 0,-1 0,0 -1,-1 0,0 -1,0 0,0 0,0 -1,0 0,0 0,0 -1,0 0,0 0,0z" />
<path style="fill:#131516" d="M166,329 l-4,-5 -3,1 3,6 3,-2 1,0 -1,0 1,0 0,0 0,0 0,-1 0,0 1,0 0,0 0,-1 0,0 0,-1 0,0 0,-1 -1,-1 0,0 -1,0 0,-1 0,0 -1,0 0,0 0,0 -1,0 0,0 0,0 -1,1z" />
<path style="fill:#131516" d="M164,322 l-1,1 -2,1 5,5 2,-2 -4,-5 4,5 0,0 0,0 0,-1 0,0 1,0 0,-1 0,0 0,0 0,-1 -1,0 0,-1 0,0 -1,-1 0,0 -1,0 -1,0 0,0 0,0 0,0 -1,0 0,0 0,0 -1,0 0,1z" />
<path style="fill:#131516" d="M172,324 l-4,-5 -4,3 3,6 5,-4 0,0 0,0 0,0 1,0 0,0 0,-1 0,0 0,0 0,-1 0,0 1,-1 -1,0 0,-1 0,0 0,-1 -1,0 0,0 -1,-1 0,0 -1,0 0,0 0,0 -1,0 0,0 0,1 -1,0z" />
<path style="fill:#131516" d="M173,316 l0,0 -5,3 4,5 5,-3 -4,-5 4,5 0,0 1,0 0,-1 0,0 0,0 0,-1 0,0 0,0 0,-1 0,0 0,-1 0,-1 -1,0 0,0 -1,-1 0,0 0,0 -1,0 0,0 0,0 -1,0 0,0 0,0 -1,1z" />
<path style="fill:#131516" d="M179,312 l-1,0 -5,4 4,5 5,-3 -3,-6 3,6 0,0 0,-1 1,0 0,0 0,-1 0,0 0,0 0,0 0,-1 0,-1 0,0 0,-1 -1,0 0,-1 -1,0 0,0 -1,0 0,0 0,0 0,0 -1,0 0,0 0,0 -1,0z" />
<path style="fill:#131516" d="M188,316 l-2,-6 -7,2 2,6 6,-1 1,-1 -1,1 1,-1 0,0 0,0 1,0 0,0 0,0 0,-1 0,0 1,-1 0,0 0,-1 0,0 -1,-1 0,0 0,-1 -1,0 0,0 0,-1 -1,0 0,0 0,0 -1,0 0,0 0,0z" />
<path style="fill:#131516" d="M190,307 l0,1 -5,3 3,5 5,-3 -3,-6 3,6 0,0 1,-1 0,0 0,0 0,0 0,-1 1,0 0,0 0,-1 0,0 -1,-1 0,-1 0,0 -1,0 0,-1 -1,0 0,0 0,0 -1,0 0,0 0,0 -1,0 0,0 0,1z" />
<path style="fill:#131516" d="M195,305 l-2,1 -3,1 3,6 3,-2 -1,-6 1,6 0,0 1,0 0,0 0,0 0,-1 1,0 0,0 0,-1 0,0 0,-1 0,0 0,-1 -1,0 0,-1 -1,0 0,0 -1,-1 0,0 0,0 0,0 -1,0 0,0 0,1 -1,0z" />
<path style="fill:#131516" d="M198,311 l-2,-6 -1,0 0,7 1,0 2,-1 -2,1 1,0 0,0 0,0 1,0 0,-1 0,0 0,0 1,0 0,-1 0,0 0,-1 0,0 0,-1 0,-1 0,0 0,-1 -1,0 0,0 0,0 0,0 -1,-1 0,0 0,0 -1,0z" />
<path style="fill:#131516" d="M201,310 l-3,-6 -3,2 3,5 3,-1 0,0 0,0 0,0 1,-1 0,0 0,0 0,0 0,-1 1,0 0,0 0,-1 0,0 0,-1 -1,0 0,-1 0,0 -1,-1 0,0 -1,0 0,0 0,0 -1,0 0,0 0,0 -1,0 0,0z" />
<path style="fill:#131516" d="M205,308 l-4,-6 -3,2 3,6 3,-2 1,0 -1,0 1,0 0,0 0,0 0,-1 1,0 0,0 0,0 0,-1 0,0 0,-1 0,-1 0,0 -1,-1 0,0 -1,0 0,-1 0,0 -1,0 0,0 0,0 -1,0 0,0 0,0 -1,0z" />
<path style="fill:#131516" d="M204,300 l-2,1 -2,2 5,5 2,-2 -3,-6 3,6 0,0 0,-1 0,0 0,0 1,-1 0,0 0,0 0,0 0,-1 -1,-1 0,0 0,-1 -1,0 0,0 -1,-1 0,0 -1,0 0,0 0,0 -1,1 0,0 0,0 -1,0 0,0z" />
<path style="fill:#131516" d="M209,307 l-1,-7 -4,0 0,7 4,0 1,0 -1,0 0,0 0,0 1,0 0,0 0,0 1,-1 0,0 0,0 0,-1 1,0 0,-1 0,0 0,-1 0,0 -1,-1 0,-1 0,0 0,0 -1,0 0,0 0,0 -1,0 0,-1 0,0z" />
<path style="fill:#131516" d="M213,304 l-4,-5 -3,2 3,6 3,-2 1,-1 -1,1 1,0 0,0 0,-1 0,0 1,0 0,0 0,-1 0,0 0,-1 0,0 0,-1 0,0 -1,-1 0,0 0,-1 -1,0 0,0 -1,0 0,0 0,0 0,0 -1,0 0,0 -1,0z" />
<path style="fill:#131516" d="M213,297 l-3,1 -1,2 4,4 2,-1 -2,-6 2,6 0,-1 0,0 0,0 1,0 0,-1 0,0 0,0 0,-1 0,0 0,-1 -1,0 0,-1 -1,0 0,-1 -1,0 0,0 -1,0 0,0 0,0 -1,0 0,0 0,1 0,0 -1,0z" />
<path style="fill:#131516" d="M217,303 l-1,-6 -3,0 0,7 3,0 1,-1 -1,1 0,0 1,0 0,0 0,-1 0,0 1,0 0,0 0,0 1,-1 0,0 0,-1 0,-1 0,0 0,-1 0,0 -1,-1 0,0 0,0 -1,0 0,-1 0,0 0,0 -1,0 0,0z" />
<path style="fill:#131516" d="M220,302 l-2,-6 -4,2 3,5 3,-1 0,0 0,0 1,0 0,-1 0,0 1,0 0,0 0,-1 0,0 0,0 0,-1 0,0 0,-1 0,-1 0,0 -1,-1 0,0 -1,0 0,0 0,0 -1,0 0,0 0,0 -1,0 0,0 0,0z" />
<path style="fill:#131516" d="M222,294 l-1,0 -3,2 2,6 4,-2 -2,-6 2,6 0,0 0,0 1,-1 0,0 0,0 0,0 0,-1 0,0 1,-1 0,0 -1,-1 0,0 0,-1 -1,0 0,-1 -1,0 0,0 0,0 0,0 -1,0 0,0 0,0 -1,0 0,0z" />
<path style="fill:#131516" d="M227,300 l-1,-6 -4,0 0,6 4,0 1,0 -1,0 0,0 0,0 1,0 0,0 0,0 1,0 0,0 0,-1 0,0 1,-1 0,0 0,-1 0,0 0,-1 -1,-1 0,0 0,0 0,0 -1,-1 0,0 0,0 -1,0 0,0 0,0z" />
<path style="fill:#131516" d="M230,292 l-1,0 -4,2 2,6 4,-1 -1,-7 1,7 1,-1 0,0 0,0 1,0 0,0 0,-1 0,0 0,0 1,-1 0,0 0,-1 0,0 -1,-1 0,-1 0,0 -1,0 0,0 -1,-1 0,0 0,0 0,0 -1,0 0,0 -1,0z" />
<path style="fill:#131516" d="M238,297 l-2,-6 -6,1 1,7 7,-2 0,0 0,0 0,0 0,0 1,0 0,-1 0,0 1,0 0,0 0,0 0,-1 0,-1 0,0 0,-1 0,0 0,-1 -1,0 0,-1 0,0 -1,0 0,0 0,0 -1,0 0,0 0,0 -1,0z" />
<path style="fill:#131516" d="M243,295 l-4,-6 -3,2 2,6 4,-2 1,0 -1,0 0,0 0,0 1,0 0,-1 0,0 0,0 0,-1 0,0 0,0 0,-1 0,-1 0,0 0,-1 -1,0 0,-1 -1,0 0,0 0,0 -1,0 0,0 0,0 -1,0 0,0 0,0z" />
<path style="fill:#131516" d="M242,287 l-2,1 -2,2 5,5 1,-2 -2,-6 2,6 0,0 1,-1 0,0 0,0 0,-1 0,0 0,0 0,0 0,-1 0,-1 0,0 -1,-1 0,0 -1,0 0,-1 -1,0 0,0 -1,0 0,0 0,1 -1,0 0,0 0,0 0,0z" />
<path style="fill:#131516" d="M245,294 l0,-7 -3,0 0,7 3,0 0,0 0,0 1,0 0,0 0,0 1,0 0,0 0,-1 0,0 1,0 0,-1 0,0 0,-1 0,0 0,-1 0,-1 0,0 0,-1 -1,0 0,0 0,0 0,0 -1,0 0,-1 0,0 -1,0z" />
<path style="fill:#131516" d="M250,294 l-2,-7 -3,0 0,7 3,0 2,0 -2,0 1,0 0,0 0,0 1,0 0,0 0,-1 1,0 0,0 0,-1 0,0 1,-1 0,0 0,-1 -1,-1 0,0 0,-1 0,0 -1,0 0,0 0,0 -1,0 0,-1 0,0 -1,0z" />
<path style="fill:#131516" d="M252,286 l-2,0 -3,2 3,6 3,-2 -1,-6 1,6 0,0 1,0 0,-1 0,0 0,0 1,0 0,-1 0,0 0,-1 0,0 0,-1 -1,0 0,-1 0,0 -1,-1 0,0 -1,0 0,0 0,0 0,0 -1,0 0,0 -1,0 0,0z" />
<path style="fill:#131516" d="M253,292 l0,-6 -1,0 0,6 1,0 0,0 0,0 1,0 0,0 0,0 1,0 0,0 0,0 0,0 1,-1 0,0 0,-1 0,0 0,-1 0,-1 0,0 0,-1 0,0 -1,0 0,-1 0,0 0,0 -1,0 0,0 0,0 -1,0z" />
<path style="fill:#131516" d="M256,292 l-1,-6 -2,0 0,6 2,0 1,0 -1,0 0,0 1,0 0,0 0,0 1,0 0,0 0,0 0,-1 1,0 0,-1 0,0 0,-1 0,-1 0,0 0,-1 -1,0 0,0 0,-1 0,0 -1,0 0,0 0,0 -1,0 0,0z" />
<path style="fill:#131516" d="M258,284 l-1,1 -4,1 3,6 4,-2 -2,-6 2,6 0,0 0,0 0,0 1,-1 0,0 0,0 0,0 0,-1 0,0 0,-1 0,0 0,-1 0,-1 -1,0 0,0 -1,-1 0,0 0,0 -1,0 0,0 0,0 -1,0 0,0 0,1z" />
<path style="fill:#131516" d="M261,291 l0,-7 -3,0 0,7 3,0 0,0 0,0 1,0 0,0 0,0 1,-1 0,0 0,0 1,0 0,0 0,-1 0,0 1,-1 0,-1 0,0 -1,-1 0,0 0,-1 0,0 -1,0 0,0 0,-1 -1,0 0,0 0,0 -1,0z" />
<path style="fill:#131516" d="M266,290 l-1,-6 -4,0 0,7 4,0 1,-1 -1,1 0,0 0,0 1,0 0,-1 0,0 1,0 0,0 0,0 0,-1 1,0 0,-1 0,-1 0,0 0,-1 -1,0 0,-1 0,0 0,0 -1,0 0,-1 0,0 -1,0 0,0 0,0z" />
<path style="fill:#131516" d="M268,283 l-2,0 -3,1 3,6 3,-1 -1,-6 1,6 1,0 0,-1 0,0 0,0 1,0 0,-1 0,0 0,0 0,-1 0,-1 0,0 0,-1 -1,0 0,-1 0,0 -1,0 0,0 -1,0 0,-1 0,0 -1,1 0,0 0,0 -1,0z" />
<path style="fill:#131516" d="M269,289 l0,-6 -1,0 0,6 1,0 0,0 0,0 1,0 0,0 1,0 0,0 0,0 0,-1 1,0 0,0 0,0 1,-1 0,-1 0,0 0,-1 0,0 -1,-1 0,0 0,-1 -1,0 0,0 0,0 0,0 -1,0 0,0 -1,0z" />
<path style="fill:#131516" d="M274,289 l-1,-6 -4,0 0,6 4,0 1,0 -1,0 0,0 1,0 0,0 0,0 0,0 1,-1 0,0 0,0 1,0 0,-1 0,-1 0,0 0,-1 0,0 0,-1 -1,0 0,-1 0,0 -1,0 0,0 0,0 0,0 -1,0 0,0z" />
<path style="fill:#131516" d="M276,281 l-1,0 -4,2 3,6 3,-2 -1,-6 1,6 1,0 0,0 0,-1 1,0 0,0 0,0 0,-1 0,0 0,-1 0,0 0,-1 0,0 0,-1 -1,0 0,-1 -1,0 0,0 0,0 -1,0 0,0 0,0 -1,0 0,0 0,0z" />
<path style="fill:#131516" d="M279,287 l0,-6 -3,0 0,6 3,0 0,0 0,0 1,0 0,0 0,0 1,0 0,0 0,0 0,0 1,-1 0,0 0,-1 0,0 1,-1 -1,0 0,-1 0,-1 0,0 -1,0 0,-1 0,0 0,0 -1,0 0,0 0,0 -1,0z" />
<path style="fill:#131516" d="M287,287 l-1,-6 -7,0 0,6 7,0 1,0 -1,0 0,0 1,0 0,0 0,0 0,0 1,0 0,0 0,-1 1,0 0,-1 0,0 0,-1 0,0 0,-1 0,-1 -1,0 0,0 0,-1 -1,0 0,0 0,0 0,0 -1,0 0,0z" />
<path style="fill:#131516" d="M292,279 l0,0 -7,2 2,6 6,-1 -1,-7 1,7 0,0 1,-1 0,0 0,0 1,0 0,0 0,-1 0,0 0,0 1,-1 0,-1 -1,0 0,-1 0,0 0,-1 -1,0 0,0 0,-1 -1,0 0,0 0,0 -1,0 0,0 0,0z" />
<path style="fill:#131516" d="M296,286 l0,-7 -4,0 0,7 4,0 0,0 0,0 0,0 0,0 1,0 0,0 0,-1 1,0 0,0 0,0 0,-1 1,0 0,-1 0,0 0,-1 0,-1 -1,0 0,-1 0,0 0,0 -1,0 0,0 0,-1 -1,0 0,0 0,0z" />
<path style="fill:#131516" d="M299,286 l0,-7 -3,0 0,7 3,0 0,0 0,0 0,0 1,0 0,0 0,0 1,-1 0,0 0,0 0,0 1,-1 0,0 0,-1 0,0 0,-1 0,-1 0,0 -1,-1 0,0 0,0 0,0 -1,0 0,-1 0,0 -1,0 0,0z" />
<path style="fill:#131516" d="M305,286 l0,-7 -6,0 0,7 6,0 0,0 0,0 1,0 0,0 0,0 1,0 0,-1 0,0 1,0 0,0 0,-1 0,0 1,-1 0,0 0,-1 -1,-1 0,0 0,-1 0,0 -1,0 0,0 0,0 -1,-1 0,0 0,0 -1,0z" />
<path style="fill:#131516" d="M312,286 l0,-7 -7,0 0,7 7,0 0,0 0,0 0,0 1,0 0,0 0,0 1,-1 0,0 0,0 0,0 1,-1 0,0 0,-1 0,0 0,-1 0,-1 0,0 -1,-1 0,0 0,0 0,0 -1,0 0,-1 0,0 -1,0 0,0z" />
<path style="fill:#131516" d="M315,286 l0,-7 -3,0 0,7 3,0 0,0 0,0 0,0 1,0 0,0 0,0 1,-1 0,0 0,0 0,0 1,-1 0,0 0,-1 0,0 0,-1 0,-1 0,0 -1,-1 0,0 0,0 0,0 -1,0 0,-1 0,0 -1,0 0,0z" />
<path style="fill:#131516" d="M318,286 l0,-7 -3,0 0,7 3,0 0,0 0,0 1,0 0,0 0,0 1,0 0,-1 0,0 1,0 0,0 0,-1 0,0 1,-1 0,0 0,-1 -1,-1 0,0 0,-1 0,0 -1,0 0,0 0,0 -1,-1 0,0 0,0 -1,0z" />
<path style="fill:#131516" d="M676,286 l0,-7 -358,0 0,7 358,0 0,0 0,0 1,0 0,0 1,0 0,0 0,-1 0,0 1,0 0,0 0,-1 0,0 1,-1 0,0 0,-1 -1,-1 0,0 0,-1 0,0 -1,0 0,0 0,0 0,-1 -1,0 0,0 -1,0z" />
<path style="fill:#131516" d="M683,286 l0,-7 -7,0 0,7 7,0 0,0 0,0 0,0 1,0 0,0 0,0 1,-1 0,0 0,0 0,0 1,-1 0,0 0,-1 0,0 0,-1 0,-1 0,0 -1,-1 0,0 0,0 0,0 -1,0 0,-1 0,0 -1,0 0,0z" />
<path style="fill:#131516" d="M689,286 l0,-7 -6,0 0,7 6,0 0,0 0,0 1,0 0,0 1,0 0,0 0,-1 0,0 1,0 0,0 0,-1 0,0 1,-1 0,0 0,-1 -1,-1 0,0 0,-1 0,0 -1,0 0,0 0,0 0,-1 -1,0 0,0 -1,0z" />
<path style="fill:#131516" d="M696,286 l0,-7 -7,0 0,7 7,0 0,0 0,0 0,0 1,0 0,0 0,0 1,-1 0,0 0,0 0,0 1,-1 0,0 0,-1 0,0 0,-1 0,-1 0,0 -1,-1 0,0 0,0 0,0 -1,0 0,-1 0,0 -1,0 0,0z" />
<path style="fill:#131516" d="M703,279 l-1,0 -6,0 0,7 6,0 1,-7 -1,7 1,0 0,0 1,0 0,0 0,-1 0,0 1,0 0,0 0,-1 0,0 1,-1 0,0 0,-1 -1,-1 0,0 0,-1 0,0 -1,0 0,0 0,0 0,-1 -1,0 0,0 -1,0z" />
<path style="fill:#131516" d="M709,287 l1,-6 -7,-2 -1,7 6,1 1,0 -1,0 1,0 0,0 0,0 1,0 0,0 0,0 1,0 0,0 0,0 1,-1 0,0 0,-1 0,-1 0,0 0,-1 0,0 0,-1 0,0 -1,0 0,0 0,-1 -1,0 0,0 0,0z" />
<path style="fill:#131516" d="M716,281 l-1,0 -6,0 0,6 6,0 1,-6 -1,6 1,0 0,0 1,0 0,0 0,0 0,0 1,0 0,-1 0,0 1,-1 0,0 0,-1 0,0 0,-1 -1,-1 0,0 0,0 -1,-1 0,0 0,0 0,0 -1,0 0,0 -1,0z" />
<path style="fill:#131516" d="M722,289 l1,-6 -7,-2 -1,6 6,2 1,0 -1,0 1,0 0,0 0,0 1,0 0,0 0,0 1,0 0,0 0,-1 1,0 0,-1 0,0 0,-1 0,-1 0,0 0,-1 0,0 0,0 -1,-1 0,0 0,0 0,0 -1,0 0,0z" />
<path style="fill:#131516" d="M728,283 l-1,0 -5,0 0,6 5,0 1,-6 -1,6 0,0 1,0 0,0 0,0 1,0 0,-1 0,0 0,0 1,0 0,-1 0,-1 0,0 0,-1 0,0 0,-1 -1,0 0,-1 0,0 0,0 -1,0 0,0 0,0 -1,0 0,0z" />
<path style="fill:#131516" d="M733,291 l1,-7 -6,-1 -2,6 7,2 0,0 0,0 0,0 0,0 1,0 0,0 0,0 1,-1 0,0 0,0 1,0 0,-1 0,0 1,-1 0,0 0,-1 0,-1 -1,0 0,0 0,-1 0,0 0,0 -1,0 0,0 0,-1 -1,0z" />
<path style="fill:#131516" d="M739,292 l2,-6 -7,-2 -1,7 6,1 0,0 0,0 1,0 0,0 0,0 1,0 0,0 0,0 0,0 1,0 0,-1 1,0 0,-1 0,0 0,-1 0,0 0,-1 0,-1 0,0 -1,0 0,0 0,-1 0,0 -1,0 0,0 0,0z" />
<path style="fill:#131516" d="M746,294 l1,-6 -6,-2 -2,6 7,2 0,0 0,0 0,0 0,0 1,0 0,0 0,0 1,0 0,0 0,-1 1,0 0,0 0,-1 1,-1 0,0 0,-1 0,0 -1,-1 0,0 0,0 0,-1 0,0 -1,0 0,0 0,0 -1,0z" />
<path style="fill:#131516" d="M755,288 l-2,-1 -7,0 0,7 7,0 2,-6 -2,6 0,0 1,0 0,0 0,0 1,0 0,-1 0,0 0,0 1,-1 0,0 0,-1 0,0 0,-1 0,-1 0,0 -1,-1 0,0 0,0 0,0 -1,0 0,0 0,-1 -1,0 0,0z" />
<path style="fill:#131516" d="M757,297 l3,-6 -5,-3 -4,5 5,4 1,0 -1,0 0,0 1,0 0,0 0,0 1,0 0,0 0,0 1,0 0,0 1,0 0,-1 0,0 1,-1 0,0 0,-1 0,-1 0,0 0,0 0,0 0,-1 -1,0 0,0 0,-1 0,0z" />
<path style="fill:#131516" d="M765,292 l0,0 -6,-1 -2,6 7,2 1,-7 -1,7 0,0 0,0 1,0 0,0 0,0 1,0 0,-1 0,0 1,0 0,-1 0,0 0,-1 1,0 0,-1 -1,0 0,-1 0,0 0,-1 0,0 -1,0 0,0 0,0 -1,0 0,-1z" />
<path style="fill:#131516" d="M768,300 l2,-6 -5,-2 -2,7 5,1 0,0 0,0 1,0 0,0 0,0 1,0 0,0 0,0 1,0 0,0 0,0 1,-1 0,0 0,-1 0,0 0,-1 0,-1 0,0 0,0 0,-1 0,0 -1,0 0,0 0,-1 0,0 -1,0z" />
<path style="fill:#131516" d="M777,296 l-1,0 -6,-2 -2,6 7,2 2,-6 -2,6 0,0 1,0 0,0 0,0 1,0 0,0 0,0 1,0 0,-1 0,0 1,-1 0,0 0,-1 0,-1 0,0 0,-1 -1,0 0,0 0,-1 0,0 0,0 -1,0 0,0 -1,0z" />
<path style="fill:#131516" d="M782,298 l0,-1 -5,-1 -2,6 5,2 2,-6 -2,6 0,0 0,0 1,0 0,0 0,0 1,0 0,-1 0,0 1,0 0,0 0,-1 1,-1 0,0 0,-1 0,0 0,-1 -1,0 0,0 0,-1 0,0 0,0 -1,0 0,0 0,-1z" />
<path style="fill:#131516" d="M786,307 l3,-6 -7,-3 -3,5 7,4 0,0 0,0 0,0 0,0 1,0 0,0 0,0 1,0 0,0 0,0 1,0 0,-1 1,0 0,-1 0,0 0,-1 0,-1 0,0 0,0 0,-1 0,0 0,0 -1,-1 0,0 0,0 0,0z" />
<path style="fill:#131516" d="M793,302 l0,0 -5,-1 -2,6 5,1 2,-6 -2,6 0,1 1,0 0,0 0,0 1,0 0,-1 0,0 1,0 0,0 1,-1 0,0 0,-1 0,0 0,-1 0,0 0,-1 0,0 0,-1 0,0 -1,0 0,0 0,0 -1,-1 0,0z" />
<path style="fill:#131516" d="M797,312 l3,-6 -7,-4 -2,6 6,3 0,1 0,-1 0,1 1,0 0,0 0,0 1,0 0,0 0,0 1,0 0,-1 1,0 0,0 0,-1 1,-1 0,0 0,-1 0,0 0,-1 -1,0 0,0 0,0 0,-1 0,0 -1,0 0,0z" />
<path style="fill:#131516" d="M805,308 l-1,-1 -4,-1 -3,6 5,1 3,-5 -3,5 1,0 0,0 0,0 1,0 0,0 0,0 1,0 0,0 0,0 1,-1 0,0 0,-1 1,0 0,-1 0,-1 -1,0 0,0 0,-1 0,0 0,0 -1,0 0,-1 0,0 -1,0z" />
<path style="fill:#131516" d="M807,316 l3,-5 -5,-3 -3,5 4,3 1,0 -1,0 1,0 0,0 0,1 1,0 0,0 0,0 1,0 0,0 1,-1 0,0 1,0 0,-1 0,0 0,-1 1,0 -1,-1 0,0 0,-1 0,0 0,0 0,0 0,-1 -1,0 0,0z" />
<path style="fill:#131516" d="M815,312 l-1,0 -5,-2 -2,6 5,2 3,-6 -3,6 0,0 1,0 0,0 1,0 0,0 0,0 0,0 1,0 0,0 1,-1 0,0 0,-1 0,-1 0,0 0,-1 0,0 0,-1 0,0 0,0 -1,0 0,-1 0,0 -1,0 0,0z" />
<path style="fill:#131516" d="M821,316 l0,-1 -6,-3 -3,6 6,3 3,-5 -3,5 1,0 0,0 0,1 1,0 0,0 0,0 1,-1 0,0 0,0 1,0 0,-1 1,0 0,-1 0,0 0,-1 0,-1 0,0 0,0 -1,0 0,-1 0,0 0,0 -1,0 0,-1z" />
<path style="fill:#131516" d="M823,324 l3,-5 -5,-3 -3,5 5,3 0,0 0,0 0,0 0,1 1,0 0,0 0,0 1,0 0,0 0,0 1,0 0,-1 1,0 0,-1 1,0 0,-1 0,0 0,-1 0,0 0,-1 0,0 -1,0 0,0 0,-1 0,0 -1,0z" />
<path style="fill:#131516" d="M828,328 l3,-6 -5,-3 -3,5 5,4 0,0 0,0 0,0 0,0 1,0 0,0 0,0 1,0 0,0 0,0 1,0 0,0 1,-1 0,0 0,-1 1,0 0,-1 0,-1 0,0 0,0 -1,-1 0,0 0,0 0,0 0,-1 -1,0z" />
<path style="fill:#131516" d="M832,331 l4,-6 -5,-3 -3,6 4,3 0,0 0,0 1,0 0,0 0,0 1,0 0,0 0,0 1,0 0,0 1,0 0,0 1,-1 0,0 0,-1 0,0 1,-1 0,0 0,-1 -1,0 0,0 0,-1 0,0 0,0 -1,0 0,-1z" />
<path style="fill:#131516" d="M841,329 l0,0 -5,-4 -4,6 5,3 4,-5 -4,5 1,0 0,0 0,1 1,0 0,0 0,0 1,0 0,0 1,-1 0,0 1,0 0,-1 0,0 0,-1 0,-1 0,0 0,0 0,-1 0,0 0,0 0,-1 0,0 -1,0 0,0z" />
<path style="fill:#131516" d="M842,337 l4,-5 -5,-3 -4,5 5,3 0,0 0,0 1,1 0,0 0,0 1,0 0,0 0,0 1,0 0,0 0,0 1,-1 0,0 1,-1 0,0 0,-1 0,0 0,-1 0,0 0,-1 0,0 0,0 0,0 -1,-1 0,0 0,0z" />
<path style="fill:#131516" d="M851,336 l0,-1 -5,-3 -4,5 5,4 4,-5 -4,5 0,0 1,0 0,0 0,0 1,0 0,0 0,0 1,0 0,0 1,0 0,-1 1,0 0,-1 0,0 0,-1 0,-1 0,0 0,0 0,-1 0,0 0,0 -1,0 0,-1 0,0z" />
<path style="fill:#131516" d="M850,344 l5,-5 -4,-3 -4,4 3,3 0,1 0,-1 0,1 1,0 0,0 0,0 0,0 1,0 0,0 0,0 1,0 1,0 0,0 1,-1 0,0 0,-1 0,0 1,-1 0,0 -1,0 0,-1 0,0 0,0 0,-1 0,0 0,0z" />
<path style="fill:#131516" d="M859,342 l0,0 -5,-4 -4,6 5,3 4,-5 -4,5 1,0 0,0 0,1 1,0 0,0 0,0 1,0 0,0 0,-1 1,0 0,0 1,-1 0,0 0,-1 0,-1 0,0 0,0 0,-1 0,0 0,0 0,-1 -1,0 0,0 0,0z" />
<path style="fill:#131516" d="M860,352 l4,-5 -5,-5 -4,5 5,5 0,0 0,0 0,0 0,0 1,0 0,0 0,0 1,1 0,0 0,0 1,-1 0,0 1,0 0,0 1,-1 0,0 0,-1 0,-1 0,0 0,0 0,-1 0,0 0,0 0,0 0,-1 -1,0z" />
<path style="fill:#131516" d="M863,355 l5,-5 -4,-3 -4,5 3,3 0,0 0,0 0,0 1,0 0,0 0,1 0,0 1,0 0,0 0,0 1,0 1,0 0,-1 1,0 0,-1 0,0 0,-1 1,0 0,-1 0,0 -1,0 0,-1 0,0 0,0 0,0 0,-1z" />
<path style="fill:#131516" d="M873,354 l-1,-1 -5,-3 -4,5 5,3 5,-4 -5,4 1,1 0,0 0,0 1,0 0,0 0,0 1,0 0,0 0,0 1,-1 0,0 1,0 0,-1 0,-1 0,0 0,-1 0,0 0,0 0,-1 0,0 0,0 0,0 -1,-1 0,0z" />
<path style="fill:#131516" d="M872,363 l4,-4 -3,-5 -6,4 4,4 1,1 -1,-1 0,1 0,0 0,0 1,0 0,1 0,0 1,0 0,0 0,0 1,0 1,0 0,-1 1,0 0,0 0,-1 1,-1 0,0 0,0 0,0 0,-1 0,0 -1,0 0,-1 0,0z" />
<path style="fill:#131516" d="M881,362 l-1,-1 -5,-3 -3,5 4,4 5,-5 -5,5 1,0 0,0 0,0 1,0 0,0 0,0 1,0 0,0 1,0 0,0 1,-1 0,0 0,-1 0,0 1,-1 -1,-1 0,0 0,0 0,0 0,-1 0,0 0,0 -1,-1 0,0z" />
<path style="fill:#131516" d="M879,371 l5,-4 -3,-5 -5,4 3,5 0,0 0,0 0,0 0,0 1,0 0,1 0,0 0,0 1,0 0,0 1,0 0,0 1,0 0,0 1,-1 0,0 0,-1 1,0 0,-1 0,0 0,0 0,-1 0,0 0,0 -1,-1 0,0z" />
<path style="fill:#131516" d="M881,373 l4,-5 -1,-1 -5,4 2,2 0,0 0,0 0,0 0,0 1,0 0,1 0,0 1,0 0,0 0,0 1,0 0,-1 1,0 0,0 1,-1 0,0 0,-1 0,0 0,-1 0,0 0,0 0,-1 0,0 0,0 0,-1 -1,0z" />
<path style="fill:#131516" d="M887,370 l0,0 -2,-2 -4,5 1,1 5,-4 -5,4 1,1 0,0 0,0 1,0 0,0 0,0 1,0 0,0 0,0 1,0 1,0 0,-1 0,0 1,-1 0,0 0,-1 0,0 0,0 0,-1 0,0 0,0 0,-1 -1,0 0,0z" />
<path style="fill:#131516" d="M886,379 l5,-4 -4,-5 -5,4 3,5 1,0 -1,0 1,0 0,0 0,1 0,0 1,0 0,0 0,0 0,0 1,0 1,0 0,0 1,0 0,-1 1,0 0,-1 0,0 0,-1 0,0 0,0 0,-1 0,0 0,0 0,-1 0,0z" />
<path style="fill:#131516" d="M894,379 l0,-1 -4,-3 -4,4 3,3 5,-3 -5,3 0,1 1,0 0,0 0,0 0,0 1,0 0,0 0,0 1,0 1,0 0,0 1,-1 0,0 0,-1 0,0 1,-1 0,0 0,0 -1,-1 0,0 0,0 0,-1 0,0 0,0z" />
<path style="fill:#131516" d="M891,386 l5,-4 -2,-3 -6,3 2,3 1,1 -1,-1 0,0 0,1 1,0 0,0 0,0 0,0 1,0 0,1 1,0 0,0 1,0 0,-1 1,0 0,0 1,-1 0,0 0,-1 0,0 0,0 0,-1 0,0 0,0 0,-1 0,0z" />
<path style="fill:#131516" d="M897,383 l0,0 -2,-2 -4,5 1,1 5,-4 -5,4 1,1 0,0 0,0 0,0 1,0 0,0 0,0 1,0 0,0 1,0 0,0 1,-1 0,0 1,-1 0,0 0,-1 0,0 0,0 0,-1 0,0 -1,0 0,-1 0,0 0,0z" />
<path style="fill:#131516" d="M900,388 l0,0 -3,-5 -5,4 3,5 5,-4 -5,4 0,0 1,0 0,1 0,0 0,0 1,0 0,0 0,0 1,0 0,0 1,0 1,0 0,-1 0,0 1,-1 0,0 0,-1 0,0 0,0 0,-1 0,0 0,0 0,-1 -1,0z" />
<path style="fill:#131516" d="M899,397 l5,-4 -4,-5 -5,4 3,5 1,0 -1,0 1,0 0,0 0,0 0,1 1,0 0,0 0,0 1,0 0,0 1,0 0,0 1,0 0,-1 1,0 0,-1 0,0 0,-1 0,0 0,0 0,-1 0,0 0,0 0,-1 0,0z" />
<path style="fill:#131516" d="M907,397 l0,-1 -4,-3 -4,4 3,3 5,-3 -5,3 0,1 1,0 0,0 0,0 1,0 0,0 0,0 0,0 1,0 1,0 0,0 1,-1 0,0 0,-1 1,0 0,-1 0,0 0,0 0,-1 -1,0 0,0 0,-1 0,0 0,0z" />
<path style="fill:#131516" d="M904,404 l5,-4 -2,-3 -6,3 2,3 1,1 -1,-1 0,0 0,0 1,1 0,0 0,0 0,0 1,0 0,1 1,0 0,0 1,-1 0,0 1,0 0,0 1,-1 0,0 0,-1 0,0 0,0 0,-1 0,0 0,0 0,-1 0,0z" />
<path style="fill:#131516" d="M911,403 l-1,-2 -2,-2 -4,5 1,1 6,-2 -6,2 1,1 0,0 0,0 0,0 1,0 0,0 0,0 1,0 0,0 1,0 0,0 1,-1 0,0 1,-1 0,0 0,-1 0,0 0,-1 0,0 0,0 0,0 -1,-1 0,0 0,0z" />
<path style="fill:#131516" d="M905,409 l6,-3 0,-3 -7,0 0,3 1,3 -1,-3 0,1 0,0 0,0 1,1 0,0 0,0 0,0 0,1 1,0 0,0 1,0 1,0 0,0 1,0 0,0 1,0 0,-1 0,0 0,0 1,0 0,-1 0,0 0,0 0,-1z" />
<path style="fill:#131516" d="M912,406 l-1,0 -1,-2 -5,5 2,1 5,-4 -5,4 0,0 0,1 1,0 0,0 0,0 1,0 0,0 0,0 1,0 0,0 1,0 0,-1 1,0 0,-1 0,0 0,-1 0,0 0,-1 0,0 0,0 0,-1 0,0 0,0 -1,0z" />
<path style="fill:#131516" d="M916,413 l-1,-2 -3,-5 -6,4 4,5 6,-2 -6,2 0,0 0,0 0,0 1,1 0,0 0,0 1,0 0,0 1,0 0,0 1,0 0,-1 1,0 0,0 0,-1 1,0 0,-1 0,0 0,0 0,-1 0,0 0,0 -1,-1 0,0z" />
<path style="fill:#131516" d="M910,418 l6,-2 0,-3 -7,0 0,3 1,2 -1,-2 0,0 0,1 0,0 0,0 1,1 0,0 0,0 0,0 1,1 0,0 1,0 0,0 1,0 1,0 0,0 1,-1 0,0 0,0 0,0 0,-1 1,0 0,0 0,-1 0,0z" />
<path style="fill:#131516" d="M917,416 l-1,-1 -1,-1 -5,4 2,2 5,-4 -5,4 0,0 0,0 1,1 0,0 0,0 1,0 0,0 0,0 1,0 0,0 1,-1 0,0 1,-1 0,0 0,-1 0,0 0,-1 0,0 0,0 0,0 0,-1 0,0 0,0 -1,-1z" />
<path style="fill:#131516" d="M921,423 l-1,-2 -3,-5 -6,3 4,5 6,-1 -6,1 0,1 0,0 0,0 1,0 0,1 0,0 1,0 0,0 0,0 1,0 1,0 0,-1 1,0 0,-1 0,0 1,-1 0,0 0,0 0,-1 0,0 0,0 -1,-1 0,0 0,0z" />
<path style="fill:#131516" d="M915,428 l6,-2 0,-3 -7,0 0,3 1,2 -1,-2 0,0 0,1 0,0 0,0 0,0 1,1 0,0 0,0 1,1 0,0 1,0 0,0 1,0 1,0 0,0 1,-1 0,0 0,0 0,-1 0,0 0,0 1,0 0,-1 0,0z" />
<path style="fill:#131516" d="M922,426 l-1,-1 -1,-2 -5,5 2,2 5,-4 -5,4 0,0 0,0 1,0 0,1 0,0 0,0 1,0 0,0 1,0 0,-1 1,0 0,0 1,-1 0,0 0,-1 0,0 0,-1 0,0 0,0 0,-1 0,0 0,0 0,-1 -1,0z" />
<path style="fill:#131516" d="M918,433 l6,-2 -2,-5 -6,2 2,5 0,0 0,0 0,1 0,0 0,0 0,1 0,0 1,0 0,0 0,0 1,0 0,1 1,0 1,-1 0,0 1,0 0,-1 0,0 1,0 0,-1 0,0 0,0 0,-1 0,0 0,0 0,-1z" />
<path style="fill:#131516" d="M919,439 l6,-3 -1,-5 -6,2 1,5 0,1 0,-1 0,1 0,0 1,0 0,0 0,1 0,0 1,0 0,0 0,0 1,0 1,0 0,0 1,0 0,0 1,-1 0,0 0,-1 0,0 0,0 0,0 0,-1 0,0 0,0 0,-1z" />
<path style="fill:#131516" d="M927,440 l0,-1 -2,-3 -6,3 2,3 6,-2 -6,2 0,0 0,0 1,1 0,0 0,0 0,0 1,0 0,1 1,0 0,0 1,0 0,-1 1,0 0,0 1,-1 0,0 0,-1 0,0 0,0 0,-1 0,0 0,0 0,-1 0,0z" />
<path style="fill:#131516" d="M922,446 l5,-2 0,-4 -6,0 0,4 1,2 -1,-2 0,0 0,0 0,1 0,0 0,0 0,1 0,0 1,0 0,0 1,1 0,0 1,0 0,0 1,0 1,-1 0,0 0,0 0,0 1,-1 0,0 0,0 0,-1 0,0 0,0z" />
<path style="fill:#131516" d="M929,445 l-1,-2 -2,-2 -4,5 1,2 6,-3 -6,3 0,0 1,0 0,0 0,0 1,0 0,1 0,0 1,0 0,-1 1,0 0,0 1,0 0,-1 0,0 1,-1 0,-1 0,0 0,0 0,-1 0,0 -1,0 0,0 0,-1 0,0z" />
<path style="fill:#131516" d="M923,451 l6,-2 0,-4 -7,0 0,4 1,2 -1,-2 0,0 0,0 0,1 0,0 1,0 0,1 0,0 0,0 1,0 0,1 1,0 0,0 1,0 1,0 0,-1 1,0 0,0 0,0 0,-1 0,0 1,0 0,-1 0,0 0,0z" />
<path style="fill:#131516" d="M930,450 l-1,-2 -1,-2 -5,5 2,1 5,-2 -5,2 0,1 0,0 1,0 0,0 0,0 1,0 0,0 0,0 1,0 0,0 1,0 0,-1 1,0 0,-1 0,0 0,-1 0,0 0,0 0,-1 0,0 0,0 0,-1 0,0 -1,0z" />
<path style="fill:#131516" d="M924,453 l6,0 0,-3 -6,0 0,3 0,0 0,0 0,1 0,0 0,1 0,0 0,0 0,0 1,1 0,0 0,0 1,0 0,1 1,0 1,0 0,-1 1,0 0,0 1,0 0,-1 0,0 0,0 0,0 0,-1 0,0 0,-1z" />
<path style="fill:#131516" d="M925,459 l5,-2 0,-4 -6,0 0,4 1,2 -1,-2 0,0 0,0 0,1 0,0 0,0 0,1 1,0 0,0 0,0 1,1 0,0 1,0 1,0 0,0 1,-1 0,0 1,0 0,0 0,-1 0,0 0,0 0,-1 0,0 0,0z" />
<path style="fill:#131516" d="M932,458 l-1,-2 -2,-2 -4,5 1,2 6,-3 -6,3 1,0 0,0 0,0 1,0 0,1 0,0 1,0 0,0 0,0 1,-1 1,0 0,0 0,-1 1,0 0,-1 0,-1 0,0 0,0 0,0 0,-1 0,0 0,0 -1,-1 0,0z" />
<path style="fill:#131516" d="M925,462 l7,0 0,-4 -7,0 0,4 0,0 0,0 0,0 1,0 0,1 0,0 0,0 0,1 0,0 0,0 1,0 1,1 0,0 1,0 0,0 1,0 0,-1 1,0 0,0 0,0 1,-1 0,0 0,0 0,-1 0,0 0,0z" />
<path style="fill:#131516" d="M926,465 l6,-2 0,-1 -7,0 0,1 1,2 -1,-2 0,1 1,0 0,0 0,1 0,0 0,0 0,0 0,1 1,0 1,0 0,0 1,0 0,0 1,0 0,0 1,0 0,-1 0,0 1,0 0,0 0,-1 0,0 0,0 0,-1z" />
<path style="fill:#131516" d="M934,466 l-1,-1 -1,-3 -6,3 1,3 7,-2 -7,2 1,0 0,1 0,0 0,0 1,0 0,0 0,1 0,0 1,0 1,0 0,0 1,-1 0,0 1,0 0,-1 0,0 1,-1 0,0 0,0 0,-1 0,0 0,0 -1,-1 0,0z" />
<path style="fill:#131516" d="M927,470 l7,0 0,-4 -7,0 0,4 0,0 0,0 0,0 0,0 0,1 0,0 1,0 0,1 0,0 0,0 1,1 0,0 1,0 0,0 1,0 1,0 0,0 1,-1 0,0 0,0 0,-1 0,0 0,0 1,-1 0,0 0,0z" />
<path style="fill:#131516" d="M927,471 l7,0 0,-1 -7,0 0,1 0,0 0,0 0,1 0,0 0,0 0,1 1,0 0,0 0,1 0,0 1,0 0,0 1,1 0,0 1,0 1,-1 0,0 1,0 0,0 0,-1 0,0 0,0 0,-1 1,0 0,0 0,-1z" />
<path style="fill:#131516" d="M927,475 l7,0 0,-4 -7,0 0,4 0,0 0,0 0,0 0,0 0,1 0,0 1,0 0,1 0,0 0,0 1,0 0,1 1,0 0,0 1,0 1,0 0,-1 1,0 0,0 0,0 0,-1 0,0 0,0 1,-1 0,0 0,0z" />
<path style="fill:#131516" d="M928,480 l6,-2 0,-3 -7,0 0,3 1,2 -1,-2 0,0 0,1 0,0 0,0 1,1 0,0 0,0 0,0 1,1 0,0 1,0 0,0 1,0 1,0 0,0 1,-1 0,0 0,0 0,0 0,-1 0,0 1,0 0,-1 0,0z" />
<path style="fill:#131516" d="M935,479 l-1,-2 -1,-1 -5,4 2,2 5,-3 -5,3 0,0 0,0 1,0 0,1 0,0 1,0 0,0 0,0 1,0 0,-1 1,0 0,0 1,-1 0,0 0,-1 0,0 0,-1 0,0 0,0 0,-1 0,0 0,0 0,-1 -1,0z" />
<path style="fill:#131516" d="M929,486 l6,0 0,-7 -6,0 0,7 0,0 0,0 0,0 0,1 0,0 0,0 0,1 0,0 1,0 0,0 0,1 1,0 0,0 1,0 1,0 0,0 1,0 0,-1 0,0 1,0 0,0 0,-1 0,0 0,0 0,-1 0,0z" />
<path style="fill:#131516" d="M929,488 l6,0 0,-2 -6,0 0,2 0,0 0,0 0,0 0,0 0,1 0,0 0,0 0,1 1,0 0,0 0,0 1,1 0,0 1,0 1,0 0,0 1,-1 0,0 0,0 1,0 0,-1 0,0 0,0 0,-1 0,0 0,0z" />
<path style="fill:#131516" d="M929,491 l6,0 0,-3 -6,0 0,3 0,0 0,0 0,0 0,1 0,0 0,0 0,1 0,0 1,0 0,0 0,1 1,0 0,0 1,0 1,0 0,0 1,0 0,-1 0,0 1,0 0,0 0,-1 0,0 0,0 0,-1 0,0z" />
<path style="fill:#131516" d="M929,494 l6,0 0,-3 -6,0 0,3 0,0 0,0 0,1 0,0 0,0 0,1 0,0 0,0 1,0 0,1 0,0 1,0 0,0 1,0 1,0 0,0 1,0 0,0 0,-1 1,0 0,0 0,0 0,-1 0,0 0,0 0,-1z" />
<path style="fill:#131516" d="M929,497 l6,0 0,-3 -6,0 0,3 0,0 0,0 0,1 0,0 0,1 0,0 0,0 0,0 1,1 0,0 0,0 1,0 0,1 1,0 1,0 0,-1 1,0 0,0 0,0 1,-1 0,0 0,0 0,0 0,-1 0,0 0,-1z" />
<path style="fill:#131516" d="M929,502 l6,0 0,-5 -6,0 0,5 0,0 0,0 0,1 0,0 0,0 0,1 0,0 0,0 1,0 0,1 0,0 1,0 0,0 1,0 1,0 0,0 1,0 0,0 0,-1 1,0 0,0 0,0 0,-1 0,0 0,0 0,-1z" />
<path style="fill:#131516" d="M929,507 l6,0 0,-5 -6,0 0,5 0,0 0,0 0,1 0,0 0,0 0,1 0,0 0,0 1,0 0,1 0,0 1,0 0,0 1,0 1,0 0,0 1,0 0,0 0,-1 1,0 0,0 0,0 0,-1 0,0 0,0 0,-1z" />
<path style="fill:#131516" d="M935,515 l0,-1 0,-7 -6,0 0,7 6,1 -6,-1 0,0 0,0 0,1 0,0 0,0 0,1 1,0 0,0 0,0 1,1 0,0 1,0 1,0 0,0 1,-1 0,0 0,0 1,0 0,-1 0,0 0,0 0,-1 0,0 0,0z" />
<path style="fill:#131516" d="M927,519 l6,1 2,-5 -6,-2 -2,5 0,1 0,-1 0,0 0,0 0,1 0,0 0,0 0,1 0,0 0,0 1,1 0,0 1,0 0,1 1,0 1,0 0,0 1,0 0,-1 0,0 0,0 1,0 0,0 0,-1 0,0 0,0z" />
<path style="fill:#131516" d="M934,524 l0,-1 0,-4 -7,0 0,4 7,1 -7,-1 0,1 0,0 0,1 0,0 1,0 0,0 0,1 0,0 1,0 0,0 1,1 0,0 1,0 1,-1 0,0 1,0 0,0 0,-1 0,0 0,0 0,0 1,-1 0,0 0,-1z" />
<path style="fill:#131516" d="M925,530 l7,1 2,-7 -7,-1 -1,6 -1,1 1,-1 -1,1 0,0 0,0 0,1 1,0 0,0 0,0 0,1 0,0 1,1 0,0 1,0 1,0 0,0 1,0 0,0 1,0 0,-1 0,0 0,0 0,0 1,-1 0,0 0,0z" />
<path style="fill:#131516" d="M932,536 l0,-1 0,-5 -7,0 0,5 7,1 -7,-1 0,0 1,1 0,0 0,0 0,1 0,0 0,0 0,0 1,1 1,0 0,0 1,0 0,0 1,0 0,0 1,-1 0,0 0,0 1,0 0,-1 0,0 0,0 0,-1 0,0z" />
<path style="fill:#131516" d="M924,539 l6,2 2,-5 -6,-2 -2,5 0,0 0,0 0,0 0,0 0,1 0,0 0,0 0,1 0,0 0,0 1,1 0,0 1,1 0,0 1,0 0,0 1,0 0,0 1,0 0,-1 0,0 0,0 1,0 0,-1 0,0 0,0z" />
<path style="fill:#131516" d="M922,544 l7,2 1,-5 -6,-2 -2,5 0,0 0,0 0,0 0,0 0,1 0,0 0,0 0,1 0,0 1,0 0,1 0,0 1,0 0,1 1,0 1,0 0,0 1,0 0,-1 0,0 1,0 0,0 0,0 0,-1 0,0 1,0z" />
<path style="fill:#131516" d="M927,552 l0,0 2,-7 -7,-1 -1,6 6,2 -6,-2 0,1 0,0 0,0 0,1 0,0 0,0 0,1 0,0 0,0 1,1 0,0 1,0 1,0 0,0 1,0 0,0 1,0 0,0 0,-1 0,0 1,0 0,0 0,-1 0,0z" />
<path style="fill:#131516" d="M919,555 l6,2 2,-5 -6,-2 -2,5 0,0 0,0 0,0 0,1 0,0 0,0 0,1 0,0 0,0 0,1 1,0 0,1 1,0 0,0 1,0 0,0 1,0 1,0 0,0 0,0 0,0 1,-1 0,0 0,0 0,-1 0,0z" />
<path style="fill:#131516" d="M918,560 l6,2 1,-5 -6,-2 -1,5 0,0 0,0 -1,0 0,1 0,0 0,0 0,1 0,0 1,0 0,0 0,1 0,0 1,1 1,0 0,0 1,0 0,0 1,0 0,0 0,0 1,-1 0,0 0,0 0,0 1,-1 0,0z" />
<path style="fill:#131516" d="M916,565 l6,2 2,-5 -6,-2 -2,5 0,0 0,0 0,0 0,0 0,1 0,0 0,0 0,1 0,0 0,0 0,1 1,0 0,1 1,0 1,0 0,0 1,0 0,0 1,0 0,-1 0,0 0,0 1,0 0,-1 0,0 0,0z" />
<path style="fill:#131516" d="M920,572 l0,0 2,-5 -6,-2 -2,5 6,2 -6,-2 0,0 0,0 0,1 0,0 0,0 0,1 0,0 0,0 1,1 0,0 1,0 0,1 1,0 0,0 1,0 1,0 0,-1 0,0 0,0 1,0 0,0 0,-1 0,0 0,0z" />
<path style="fill:#131516" d="M911,574 l6,3 3,-5 -5,-3 -4,5 0,0 0,0 0,0 0,0 0,1 0,0 0,0 0,1 0,0 0,0 0,1 0,0 1,1 0,0 1,0 0,1 1,0 1,0 0,0 0,0 0,-1 1,0 0,0 0,0 1,0 0,-1z" />
<path style="fill:#131516" d="M915,582 l1,-1 1,-4 -6,-3 -2,5 6,3 -6,-3 0,1 0,0 0,0 0,1 0,0 0,0 0,1 1,0 0,0 0,1 1,0 0,0 1,1 1,0 0,0 1,-1 0,0 0,0 1,0 0,0 0,-1 0,0 0,0 1,-1z" />
<path style="fill:#131516" d="M906,584 l6,3 3,-5 -5,-3 -4,4 0,1 0,-1 0,1 0,0 0,0 0,1 0,0 0,0 0,1 0,0 0,1 0,0 1,1 0,0 1,0 0,0 1,1 1,0 0,-1 0,0 1,0 0,0 0,0 0,0 1,-1 0,0z" />
<path style="fill:#131516" d="M910,592 l1,-1 1,-5 -6,-2 -2,5 6,3 -6,-3 0,1 0,0 0,0 0,1 0,0 0,0 1,0 0,1 0,0 0,1 1,0 1,0 0,0 1,0 0,0 1,0 0,0 0,0 1,0 0,-1 0,0 0,0 0,0 1,-1z" />
<path style="fill:#131516" d="M907,597 l0,0 3,-5 -5,-4 -3,5 5,4 -5,-4 -1,1 0,0 0,0 0,1 0,0 0,0 0,1 0,0 0,0 1,1 0,0 0,1 1,0 1,0 0,0 1,0 0,0 0,0 1,0 0,0 0,0 1,-1 0,0 0,0z" />
<path style="fill:#131516" d="M898,596 l5,5 4,-4 -5,-4 -3,3 -1,0 1,0 -1,0 0,1 0,0 0,0 0,1 0,0 0,0 0,0 0,1 0,1 0,0 1,1 0,0 1,0 0,1 1,0 0,0 1,0 0,0 0,-1 0,0 1,0 0,0 0,0z" />
<path style="fill:#131516" d="M895,601 l5,4 4,-5 -6,-4 -3,5 0,0 0,0 0,1 0,0 0,0 0,1 -1,0 0,0 0,1 1,0 0,1 0,0 0,1 1,0 0,0 1,0 1,0 0,0 1,0 0,0 0,0 0,0 1,0 0,0 0,-1 0,0z" />
<path style="fill:#131516" d="M897,610 l0,0 3,-5 -5,-4 -3,5 5,4 -5,-4 0,1 -1,0 0,0 0,1 0,0 0,0 0,1 0,0 1,0 0,1 0,0 1,1 0,0 1,0 0,0 1,0 0,0 1,0 0,0 0,0 0,0 1,-1 0,0 0,0z" />
<path style="fill:#131516" d="M894,615 l0,0 3,-5 -5,-4 -3,5 5,4 -5,-4 -1,0 0,1 0,0 0,0 0,1 0,0 0,0 0,1 0,0 1,1 0,0 0,1 1,0 1,0 0,0 1,0 0,0 0,0 1,0 0,0 0,0 0,-1 1,0 0,0z" />
<path style="fill:#131516" d="M885,614 l5,5 4,-4 -5,-4 -3,3 -1,0 1,0 -1,0 0,1 0,0 0,0 0,0 0,1 0,0 0,0 0,1 0,1 0,0 1,1 0,0 1,0 0,0 1,1 0,0 0,-1 1,0 0,0 0,0 1,0 0,0 0,0z" />
<path style="fill:#131516" d="M882,619 l5,4 4,-5 -6,-4 -3,5 0,0 0,0 0,1 0,0 0,0 -1,1 0,0 0,0 0,1 1,0 0,0 0,1 0,0 1,1 0,0 1,0 1,0 0,0 1,0 0,0 0,0 0,0 1,0 0,0 0,-1 0,0z" />
<path style="fill:#131516" d="M884,628 l0,0 3,-5 -5,-4 -3,5 5,4 -5,-4 0,0 -1,1 0,0 0,0 0,1 0,0 0,0 0,1 0,0 1,1 0,0 1,1 0,0 1,0 0,0 1,0 0,0 1,0 0,0 0,0 0,0 1,-1 0,0 0,0z" />
<path style="fill:#131516" d="M880,632 l1,-1 3,-3 -5,-4 -3,3 4,5 -4,-5 0,0 -1,0 0,1 0,0 0,0 0,1 0,0 0,0 0,1 0,1 1,0 0,0 0,1 1,0 0,0 1,0 0,1 1,-1 0,0 0,0 1,0 0,0 0,0 1,-1z" />
<path style="fill:#131516" d="M871,631 l4,4 5,-3 -4,-6 -4,4 -1,1 1,-1 -1,0 0,0 0,0 0,1 -1,0 0,0 0,1 0,0 0,1 0,0 0,1 1,0 0,1 1,0 0,0 1,1 0,0 0,0 1,0 0,0 0,0 0,0 1,-1 0,0z" />
<path style="fill:#131516" d="M872,640 l1,-1 3,-5 -5,-3 -4,5 5,4 -5,-4 0,0 0,0 0,1 0,0 0,0 0,1 0,0 0,0 0,1 0,0 1,1 0,0 1,0 0,1 1,0 1,0 0,0 0,-1 1,0 0,0 0,0 0,0 1,-1 0,0z" />
<path style="fill:#131516" d="M863,639 l4,4 5,-3 -4,-5 -5,3 0,1 0,-1 0,0 0,0 0,1 -1,0 0,0 0,0 0,1 0,0 0,1 0,0 0,1 1,0 0,1 0,0 1,1 0,0 1,0 0,0 0,0 1,0 0,0 0,0 1,0 0,-1z" />
<path style="fill:#131516" d="M864,648 l1,-1 3,-5 -5,-3 -4,5 5,4 -5,-4 0,0 0,0 0,1 0,0 0,0 0,1 0,0 0,0 0,1 0,0 1,1 0,0 1,0 0,1 1,0 1,0 0,0 0,0 0,-1 1,0 0,0 0,0 0,0 1,-1z" />
<path style="fill:#131516" d="M859,651 l0,0 5,-3 -4,-5 -5,3 4,5 -4,-5 0,0 0,1 -1,0 0,0 0,0 0,1 0,0 0,0 0,1 0,0 0,1 0,1 1,0 0,0 1,1 0,0 1,0 0,0 0,0 1,0 0,0 0,0 1,0 0,-1z" />
<path style="fill:#131516" d="M850,650 l4,5 5,-4 -4,-5 -5,3 0,1 0,-1 0,1 0,0 0,0 -1,0 0,1 0,0 0,0 0,0 0,1 0,1 0,0 1,1 0,0 0,1 1,0 0,0 1,0 0,0 0,0 1,0 0,0 0,0 1,0 0,0z" />
<path style="fill:#131516" d="M851,658 l0,0 4,-4 -5,-4 -3,3 4,5 -4,-5 -1,0 0,1 0,0 0,0 0,0 0,1 0,0 0,0 0,1 0,1 0,0 1,1 0,0 1,0 0,0 1,1 0,0 0,0 1,-1 0,0 0,0 1,0 0,0 0,0z" />
<path style="fill:#131516" d="M842,656 l4,5 5,-3 -4,-5 -5,3 0,0 0,0 0,0 0,0 -1,1 0,0 0,0 0,0 0,1 0,0 0,1 0,0 0,1 0,0 1,1 0,0 1,1 0,0 1,0 0,0 0,0 1,0 0,0 0,0 1,-1 0,0z" />
<path style="fill:#131516" d="M841,664 l0,0 5,-3 -4,-5 -5,3 4,5 -4,-5 0,0 0,1 0,0 -1,0 0,0 0,1 0,0 0,0 0,1 0,0 0,1 0,1 1,0 0,0 1,1 0,0 1,0 0,0 0,0 1,0 0,0 0,0 1,0 0,-1z" />
<path style="fill:#131516" d="M832,662 l4,6 5,-4 -4,-5 -5,3 0,0 0,0 0,1 0,0 0,0 -1,0 0,1 0,0 0,0 0,1 0,0 0,1 0,0 1,1 0,0 0,1 1,0 0,0 1,0 0,0 0,0 1,0 0,0 0,0 1,0 0,0z" />
<path style="fill:#131516" d="M831,671 l0,0 5,-3 -4,-6 -4,4 3,5 -3,-5 -1,0 0,0 0,0 0,1 -1,0 0,0 0,0 0,1 0,0 0,1 0,1 1,0 0,1 1,0 0,0 1,1 0,0 0,0 1,0 0,0 0,-1 1,0 0,0 0,0z" />
<path style="fill:#131516" d="M824,668 l4,5 3,-2 -3,-6 -3,2 -1,1 1,-1 -1,0 0,0 0,1 0,0 -1,0 0,0 0,1 0,0 0,1 0,0 0,1 0,0 1,1 0,0 0,1 1,0 0,0 1,0 0,0 0,0 1,0 0,0 0,0 1,0z" />
<path style="fill:#131516" d="M826,674 l1,0 1,-2 -4,-4 -2,1 4,5 -4,-5 0,1 0,0 0,0 -1,0 0,1 0,0 0,0 0,1 0,0 1,1 0,0 0,1 1,0 0,1 1,0 0,0 1,0 0,0 0,0 1,0 0,0 0,-1 1,0 0,0z" />
<path style="fill:#131516" d="M821,678 l0,0 5,-4 -3,-5 -5,3 3,6 -3,-6 0,0 -1,1 0,0 0,0 0,0 0,1 -1,0 0,0 0,1 0,0 1,1 0,1 0,0 1,0 0,1 1,0 0,0 0,0 1,0 0,0 0,0 1,0 0,0 0,0z" />
<path style="fill:#131516" d="M814,681 l1,0 6,-3 -3,-6 -6,3 2,6 -2,-6 -1,0 0,1 0,0 0,0 -1,0 0,1 0,0 0,0 0,1 0,0 0,1 0,1 1,0 0,0 0,1 1,0 0,0 1,0 0,0 0,0 1,0 0,0 0,0 1,0z" />
<path style="fill:#131516" d="M806,677 l3,6 5,-2 -2,-6 -5,2 -1,0 1,0 0,0 0,0 -1,0 0,0 0,1 0,0 -1,0 0,0 0,1 0,1 0,0 0,1 0,0 1,1 0,0 1,1 0,0 0,0 1,0 0,0 0,0 1,0 0,0 0,0z" />
<path style="fill:#131516" d="M805,686 l0,0 5,-4 -4,-5 -4,3 3,6 -3,-6 -1,0 0,1 0,0 0,0 -1,1 0,0 0,0 0,0 0,1 0,1 0,0 1,1 0,0 1,1 0,0 1,0 0,0 0,0 1,0 0,0 0,0 1,0 0,0 0,0z" />
<path style="fill:#131516" d="M798,682 l4,5 3,-1 -3,-6 -3,2 -1,0 1,0 -1,0 0,0 0,0 0,1 -1,0 0,0 0,0 0,1 0,0 0,1 0,0 0,1 1,0 0,1 0,0 1,1 0,0 1,0 0,0 0,0 1,0 0,0 0,0 1,-1z" />
<path style="fill:#131516" d="M799,689 l2,-1 1,-1 -4,-5 -2,2 3,5 -3,-5 0,0 0,1 0,0 -1,0 0,0 0,1 0,0 0,0 0,1 1,0 0,1 0,0 1,1 0,0 1,0 0,0 1,0 0,0 0,0 1,0 0,0 0,0 1,0 0,-1z" />
<path style="fill:#131516" d="M794,683 l1,6 4,0 0,-6 -4,0 -1,0 1,0 0,0 -1,0 0,0 0,0 0,0 -1,1 0,0 0,0 -1,0 0,1 0,1 0,0 0,1 0,0 0,1 1,0 0,1 0,0 1,0 0,0 0,0 0,0 1,0 0,0z" />
<path style="fill:#131516" d="M790,686 l3,5 4,-2 -3,-6 -3,2 -1,1 1,-1 -1,0 0,0 0,1 -1,0 0,0 0,0 0,1 0,0 0,0 0,1 0,1 0,0 0,1 1,0 0,1 1,0 0,0 0,0 1,0 0,0 0,0 1,0 0,0 0,0z" />
<path style="fill:#131516" d="M790,693 l3,-1 1,-2 -4,-4 -2,1 2,6 -2,-6 0,0 0,1 -1,0 0,0 0,1 0,0 0,0 0,1 0,0 0,1 1,0 0,1 1,0 0,0 1,1 0,0 1,0 0,0 0,0 0,0 1,-1 0,0 0,0 1,0z" />
<path style="fill:#131516" d="M786,686 l1,7 3,0 0,-7 -3,0 -1,0 1,0 0,0 -1,0 0,0 0,0 -1,1 0,0 0,0 0,0 -1,1 0,0 0,1 0,0 0,1 0,1 0,0 1,1 0,0 0,0 0,0 1,0 0,1 0,0 1,0 0,0z" />
<path style="fill:#131516" d="M782,688 l3,6 4,-2 -3,-6 -4,2 0,0 0,0 0,0 0,1 -1,0 0,0 0,0 0,1 0,0 0,0 0,1 0,0 0,1 0,0 0,1 1,0 0,1 1,0 0,0 0,0 1,0 0,0 0,0 1,0 0,0 0,0z" />
<path style="fill:#131516" d="M781,696 l1,0 3,-2 -3,-6 -3,2 2,6 -2,-6 0,0 -1,0 0,0 0,1 0,0 0,0 0,0 -1,1 0,0 0,1 0,1 1,0 0,1 0,0 1,0 0,1 1,0 0,0 0,0 1,0 0,0 0,0 1,0 0,0z" />
<path style="fill:#131516" d="M778,690 l1,6 2,0 0,-7 -2,0 -1,1 1,-1 0,0 -1,0 0,1 0,0 -1,0 0,0 0,0 0,0 -1,1 0,0 0,1 0,1 0,0 0,1 0,0 1,1 0,0 0,0 0,1 1,0 0,0 0,0 1,0 0,0z" />
<path style="fill:#131516" d="M774,691 l3,6 3,-1 -2,-6 -4,1 0,0 0,0 0,1 0,0 -1,0 0,0 0,1 0,0 0,0 0,0 -1,1 0,1 1,0 0,1 0,0 1,1 0,0 1,0 0,0 0,1 0,0 1,0 0,0 0,-1 1,0 0,0z" />
<path style="fill:#131516" d="M772,699 l2,0 3,-2 -3,-6 -3,2 1,6 -1,-6 0,0 -1,0 0,1 0,0 0,0 -1,0 0,1 0,0 0,1 0,0 0,1 1,0 0,1 0,0 1,1 0,0 1,0 0,0 0,0 0,0 1,0 0,0 1,0 0,0z" />
<path style="fill:#131516" d="M768,693 l1,6 3,0 0,-6 -3,0 -1,0 1,0 0,0 -1,0 0,0 0,0 -1,0 0,0 0,0 0,1 -1,0 0,1 0,0 0,1 0,1 0,0 0,1 1,0 0,0 0,1 0,0 1,0 0,0 0,0 1,0 0,0z" />
<path style="fill:#131516" d="M763,695 l2,6 5,-2 -2,-6 -5,1 0,1 0,-1 0,1 0,0 -1,0 0,0 0,0 0,1 -1,0 0,0 0,1 0,0 0,1 0,1 0,0 1,1 0,0 1,0 0,1 0,0 1,0 0,0 0,0 1,0 0,0 0,0z" />
<path style="fill:#131516" d="M758,704 l1,0 7,-4 -3,-5 -7,3 2,6 -2,-6 0,0 0,0 -1,1 0,0 0,0 0,0 0,1 0,0 0,1 0,0 0,1 0,0 0,1 1,0 0,1 1,0 0,0 0,0 1,0 0,0 0,0 1,0 0,0 0,0z" />
<path style="fill:#131516" d="M752,699 l3,5 3,0 0,-6 -3,0 -3,1 3,-1 -1,0 0,0 -1,0 0,0 0,0 0,0 -1,0 0,1 0,0 -1,1 0,0 0,1 0,0 0,1 1,1 0,0 0,0 1,0 0,1 0,0 0,0 1,0 0,0 1,0z" />
<path style="fill:#131516" d="M753,706 l2,-1 2,-2 -5,-4 -1,1 2,6 -2,-6 -1,0 0,1 0,0 0,0 0,1 0,0 0,0 0,1 0,0 0,1 0,0 1,1 0,0 1,0 0,1 1,0 0,0 0,0 1,0 0,0 0,-1 1,0 0,0 0,0z" />
<path style="fill:#131516" d="M750,699 l0,7 3,0 0,-7 -3,0 0,0 0,0 -1,0 0,0 0,0 -1,0 0,1 0,0 -1,0 0,0 0,1 0,0 -1,1 0,0 0,1 1,1 0,0 0,1 0,0 1,0 0,0 0,0 1,1 0,0 0,0 1,0z" />
<path style="fill:#131516" d="M745,700 l1,6 4,0 0,-7 -4,0 -1,1 1,-1 0,0 0,0 -1,0 0,0 0,1 -1,0 0,0 0,0 0,1 -1,0 0,1 0,0 0,1 0,1 1,0 0,1 0,0 0,0 1,0 0,0 0,1 1,0 0,0 0,0z" />
<path style="fill:#131516" d="M743,707 l2,0 3,-2 -3,-5 -3,1 1,6 -1,-6 -1,0 0,1 0,0 0,0 -1,0 0,1 0,0 0,0 0,1 0,0 0,1 0,1 1,0 0,1 0,0 1,0 0,0 1,0 0,0 0,0 1,0 0,0 0,0 1,0z" />
<path style="fill:#131516" d="M742,701 l0,6 1,0 0,-6 -1,0 0,0 0,0 -1,0 0,0 -1,0 0,0 0,0 0,0 -1,1 0,0 0,0 -1,1 0,0 0,1 0,1 0,0 1,1 0,0 0,1 1,0 0,0 0,0 0,0 1,0 0,0 1,0z" />
<path style="fill:#131516" d="M738,701 l2,6 2,0 0,-6 -2,0 -2,0 2,0 0,0 -1,0 0,0 -1,0 0,0 0,0 0,1 -1,0 0,0 0,1 0,0 0,1 0,1 0,0 0,1 0,0 1,1 0,0 0,0 0,0 1,0 0,0 1,0 0,0z" />
<path style="fill:#131516" d="M737,709 l1,0 3,-2 -3,-6 -3,2 2,6 -2,-6 0,0 0,0 -1,0 0,1 0,0 0,0 0,1 -1,0 0,0 0,1 1,1 0,0 0,1 0,0 1,1 0,0 1,0 0,0 0,0 1,0 0,0 0,0 1,0 0,0z" />
<path style="fill:#131516" d="M733,702 l0,7 4,0 0,-7 -4,0 0,0 0,0 0,0 0,1 -1,0 0,0 0,0 -1,0 0,0 0,0 0,1 -1,1 0,0 0,1 0,0 0,1 1,0 0,1 0,0 0,0 1,1 0,0 0,0 1,0 0,0 0,0z" />
<path style="fill:#131516" d="M729,703 l1,6 3,0 0,-7 -3,0 -1,1 1,-1 0,0 -1,1 0,0 0,0 -1,0 0,0 0,0 0,0 -1,1 0,1 0,0 0,1 0,0 0,1 0,0 1,1 0,0 0,0 0,1 1,0 0,0 0,0 1,0 0,0z" />
<path style="fill:#131516" d="M727,711 l1,-1 4,-1 -3,-6 -4,1 2,7 -2,-7 0,1 0,0 0,0 -1,0 0,1 0,0 0,0 0,0 0,1 0,1 0,0 0,1 0,0 1,1 0,0 1,0 0,1 0,0 1,0 0,0 0,0 1,0 0,-1 0,0z" />
<path style="fill:#131516" d="M721,704 l1,7 5,0 0,-7 -5,0 -1,0 1,0 0,0 -1,0 0,0 0,0 -1,1 0,0 0,0 0,0 -1,1 0,0 0,1 0,0 0,1 0,1 0,0 1,1 0,0 0,0 0,0 1,0 0,0 0,1 1,0 0,0z" />
<path style="fill:#131516" d="M719,712 l1,0 3,-2 -2,-6 -4,2 2,6 -2,-6 0,0 0,0 -1,1 0,0 0,0 0,0 0,1 0,0 -1,1 0,0 1,1 0,0 0,1 1,0 0,1 1,0 0,0 0,0 0,0 1,0 0,0 0,0 1,0 0,0z" />
<path style="fill:#131516" d="M715,706 l0,6 4,0 0,-6 -4,0 0,0 0,0 0,0 0,0 -1,0 0,0 0,0 -1,0 0,1 0,0 0,0 -1,1 0,0 0,1 0,1 0,0 1,1 0,0 0,0 0,1 1,0 0,0 0,0 1,0 0,0 0,0z" />
<path style="fill:#131516" d="M712,706 l0,6 3,0 0,-6 -3,0 0,0 0,0 0,0 -1,0 0,0 0,0 -1,0 0,0 0,1 0,0 -1,0 0,1 0,0 0,1 0,1 0,0 0,1 1,0 0,0 0,1 0,0 1,0 0,0 0,0 1,0 0,0z" />
<path style="fill:#131516" d="M708,706 l1,6 3,0 0,-6 -3,0 -1,0 1,0 0,0 -1,0 0,0 0,0 -1,0 0,0 0,1 0,0 -1,0 0,1 0,0 0,1 0,1 0,0 0,1 1,0 0,0 0,1 0,0 1,0 0,0 0,0 1,0 0,0z" />
<path style="fill:#131516" d="M702,714 l1,0 7,-2 -2,-6 -6,1 0,7 0,-7 -1,1 0,0 0,0 -1,0 0,0 0,0 0,1 0,0 -1,1 0,0 0,1 0,0 0,1 1,0 0,1 1,0 0,1 0,0 0,0 1,0 0,0 0,0 1,0 0,0z" />
<path style="fill:#131516" d="M699,707 l0,7 3,0 0,-7 -3,0 0,0 0,0 0,0 -1,0 0,0 0,1 -1,0 0,0 0,0 0,0 -1,1 0,0 0,1 0,1 0,0 0,1 0,0 1,1 0,0 0,0 0,0 1,1 0,0 0,0 1,0 0,0z" />
<path style="fill:#131516" d="M696,707 l0,7 3,0 0,-7 -3,0 0,0 0,0 0,0 -1,0 0,0 0,1 -1,0 0,0 0,0 -1,0 0,1 0,0 0,1 0,1 0,0 0,1 0,0 0,1 1,0 0,0 0,0 1,1 0,0 0,0 1,0 0,0z" />
<path style="fill:#131516" d="M689,707 l0,7 7,0 0,-7 -7,0 0,0 0,0 0,0 0,0 -1,0 0,1 0,0 -1,0 0,0 0,0 0,1 -1,0 0,1 0,1 0,0 0,1 1,0 0,1 0,0 0,0 1,0 0,1 0,0 1,0 0,0 0,0z" />
<path style="fill:#131516" d="M683,707 l0,7 6,0 0,-7 -6,0 0,0 0,0 0,0 -1,0 0,0 0,1 -1,0 0,0 0,0 0,0 -1,1 0,0 0,1 0,1 0,0 0,1 0,0 1,1 0,0 0,0 0,0 1,1 0,0 0,0 1,0 0,0z" />
<path style="fill:#131516" d="M680,707 l0,7 3,0 0,-7 -3,0 0,0 0,0 -1,0 0,0 0,0 -1,1 0,0 0,0 -1,0 0,0 0,1 0,0 -1,1 0,1 0,0 1,1 0,0 0,1 0,0 1,0 0,0 0,1 1,0 0,0 0,0 1,0z" />
<path style="fill:#131516" d="M676,707 l0,7 4,0 0,-7 -4,0 0,0 0,0 0,0 0,0 -1,0 0,1 0,0 -1,0 0,0 0,0 0,1 -1,0 0,1 0,1 0,0 0,1 1,0 0,1 0,0 0,0 1,0 0,1 0,0 1,0 0,0 0,0z" />
<path style="fill:#131516" d="M318,707 l0,7 358,0 0,-7 -358,0 0,0 0,0 0,0 0,0 -1,0 0,1 0,0 -1,0 0,0 0,0 0,1 -1,0 0,1 0,1 0,0 0,1 1,0 0,1 0,0 0,0 1,0 0,1 0,0 1,0 0,0 0,0z" />
<path style="fill:#131516" d="M224,362 l0,269 6,0 0,-269z" />
<path style="fill:#131516" d="M766,359 l-539,0 0,7 539,0z" />
<path style="fill:#131516" d="M769,631 l0,-269 -6,0 0,269z" />
<path style="fill:#131516" d="M501,541 l0,-179 -7,0 0,179z" />

</svg>
